G04 #@! TF.GenerationSoftware,KiCad,Pcbnew,(5.1.5)-3*
G04 #@! TF.CreationDate,2020-06-23T19:18:02-04:00*
G04 #@! TF.ProjectId,8701Duo,38373031-4475-46f2-9e6b-696361645f70,rev?*
G04 #@! TF.SameCoordinates,Original*
G04 #@! TF.FileFunction,Copper,L2,Bot*
G04 #@! TF.FilePolarity,Positive*
%FSLAX46Y46*%
G04 Gerber Fmt 4.6, Leading zero omitted, Abs format (unit mm)*
G04 Created by KiCad (PCBNEW (5.1.5)-3) date 2020-06-23 19:18:02*
%MOMM*%
%LPD*%
G04 APERTURE LIST*
%ADD10C,0.100000*%
%ADD11R,1.700000X1.700000*%
%ADD12O,1.700000X1.700000*%
%ADD13R,1.600000X1.600000*%
%ADD14O,1.600000X1.600000*%
%ADD15C,0.400000*%
%ADD16C,0.539000*%
%ADD17C,1.500000*%
%ADD18C,0.275000*%
%ADD19C,0.350000*%
%ADD20C,0.250000*%
%ADD21C,0.239000*%
G04 APERTURE END LIST*
G04 #@! TA.AperFunction,SMDPad,CuDef*
D10*
G36*
X86147005Y-65595204D02*
G01*
X86171273Y-65598804D01*
X86195072Y-65604765D01*
X86218171Y-65613030D01*
X86240350Y-65623520D01*
X86261393Y-65636132D01*
X86281099Y-65650747D01*
X86299277Y-65667223D01*
X86315753Y-65685401D01*
X86330368Y-65705107D01*
X86342980Y-65726150D01*
X86353470Y-65748329D01*
X86361735Y-65771428D01*
X86367696Y-65795227D01*
X86371296Y-65819495D01*
X86372500Y-65843999D01*
X86372500Y-66744001D01*
X86371296Y-66768505D01*
X86367696Y-66792773D01*
X86361735Y-66816572D01*
X86353470Y-66839671D01*
X86342980Y-66861850D01*
X86330368Y-66882893D01*
X86315753Y-66902599D01*
X86299277Y-66920777D01*
X86281099Y-66937253D01*
X86261393Y-66951868D01*
X86240350Y-66964480D01*
X86218171Y-66974970D01*
X86195072Y-66983235D01*
X86171273Y-66989196D01*
X86147005Y-66992796D01*
X86122501Y-66994000D01*
X85472499Y-66994000D01*
X85447995Y-66992796D01*
X85423727Y-66989196D01*
X85399928Y-66983235D01*
X85376829Y-66974970D01*
X85354650Y-66964480D01*
X85333607Y-66951868D01*
X85313901Y-66937253D01*
X85295723Y-66920777D01*
X85279247Y-66902599D01*
X85264632Y-66882893D01*
X85252020Y-66861850D01*
X85241530Y-66839671D01*
X85233265Y-66816572D01*
X85227304Y-66792773D01*
X85223704Y-66768505D01*
X85222500Y-66744001D01*
X85222500Y-65843999D01*
X85223704Y-65819495D01*
X85227304Y-65795227D01*
X85233265Y-65771428D01*
X85241530Y-65748329D01*
X85252020Y-65726150D01*
X85264632Y-65705107D01*
X85279247Y-65685401D01*
X85295723Y-65667223D01*
X85313901Y-65650747D01*
X85333607Y-65636132D01*
X85354650Y-65623520D01*
X85376829Y-65613030D01*
X85399928Y-65604765D01*
X85423727Y-65598804D01*
X85447995Y-65595204D01*
X85472499Y-65594000D01*
X86122501Y-65594000D01*
X86147005Y-65595204D01*
G37*
G04 #@! TD.AperFunction*
G04 #@! TA.AperFunction,SMDPad,CuDef*
G36*
X84097005Y-65595204D02*
G01*
X84121273Y-65598804D01*
X84145072Y-65604765D01*
X84168171Y-65613030D01*
X84190350Y-65623520D01*
X84211393Y-65636132D01*
X84231099Y-65650747D01*
X84249277Y-65667223D01*
X84265753Y-65685401D01*
X84280368Y-65705107D01*
X84292980Y-65726150D01*
X84303470Y-65748329D01*
X84311735Y-65771428D01*
X84317696Y-65795227D01*
X84321296Y-65819495D01*
X84322500Y-65843999D01*
X84322500Y-66744001D01*
X84321296Y-66768505D01*
X84317696Y-66792773D01*
X84311735Y-66816572D01*
X84303470Y-66839671D01*
X84292980Y-66861850D01*
X84280368Y-66882893D01*
X84265753Y-66902599D01*
X84249277Y-66920777D01*
X84231099Y-66937253D01*
X84211393Y-66951868D01*
X84190350Y-66964480D01*
X84168171Y-66974970D01*
X84145072Y-66983235D01*
X84121273Y-66989196D01*
X84097005Y-66992796D01*
X84072501Y-66994000D01*
X83422499Y-66994000D01*
X83397995Y-66992796D01*
X83373727Y-66989196D01*
X83349928Y-66983235D01*
X83326829Y-66974970D01*
X83304650Y-66964480D01*
X83283607Y-66951868D01*
X83263901Y-66937253D01*
X83245723Y-66920777D01*
X83229247Y-66902599D01*
X83214632Y-66882893D01*
X83202020Y-66861850D01*
X83191530Y-66839671D01*
X83183265Y-66816572D01*
X83177304Y-66792773D01*
X83173704Y-66768505D01*
X83172500Y-66744001D01*
X83172500Y-65843999D01*
X83173704Y-65819495D01*
X83177304Y-65795227D01*
X83183265Y-65771428D01*
X83191530Y-65748329D01*
X83202020Y-65726150D01*
X83214632Y-65705107D01*
X83229247Y-65685401D01*
X83245723Y-65667223D01*
X83263901Y-65650747D01*
X83283607Y-65636132D01*
X83304650Y-65623520D01*
X83326829Y-65613030D01*
X83349928Y-65604765D01*
X83373727Y-65598804D01*
X83397995Y-65595204D01*
X83422499Y-65594000D01*
X84072501Y-65594000D01*
X84097005Y-65595204D01*
G37*
G04 #@! TD.AperFunction*
D11*
X91503500Y-60579000D03*
D12*
X94043500Y-60579000D03*
X96583500Y-60579000D03*
G04 #@! TA.AperFunction,SMDPad,CuDef*
D10*
G36*
X84414505Y-59943704D02*
G01*
X84438773Y-59947304D01*
X84462572Y-59953265D01*
X84485671Y-59961530D01*
X84507850Y-59972020D01*
X84528893Y-59984632D01*
X84548599Y-59999247D01*
X84566777Y-60015723D01*
X84583253Y-60033901D01*
X84597868Y-60053607D01*
X84610480Y-60074650D01*
X84620970Y-60096829D01*
X84629235Y-60119928D01*
X84635196Y-60143727D01*
X84638796Y-60167995D01*
X84640000Y-60192499D01*
X84640000Y-61092501D01*
X84638796Y-61117005D01*
X84635196Y-61141273D01*
X84629235Y-61165072D01*
X84620970Y-61188171D01*
X84610480Y-61210350D01*
X84597868Y-61231393D01*
X84583253Y-61251099D01*
X84566777Y-61269277D01*
X84548599Y-61285753D01*
X84528893Y-61300368D01*
X84507850Y-61312980D01*
X84485671Y-61323470D01*
X84462572Y-61331735D01*
X84438773Y-61337696D01*
X84414505Y-61341296D01*
X84390001Y-61342500D01*
X83739999Y-61342500D01*
X83715495Y-61341296D01*
X83691227Y-61337696D01*
X83667428Y-61331735D01*
X83644329Y-61323470D01*
X83622150Y-61312980D01*
X83601107Y-61300368D01*
X83581401Y-61285753D01*
X83563223Y-61269277D01*
X83546747Y-61251099D01*
X83532132Y-61231393D01*
X83519520Y-61210350D01*
X83509030Y-61188171D01*
X83500765Y-61165072D01*
X83494804Y-61141273D01*
X83491204Y-61117005D01*
X83490000Y-61092501D01*
X83490000Y-60192499D01*
X83491204Y-60167995D01*
X83494804Y-60143727D01*
X83500765Y-60119928D01*
X83509030Y-60096829D01*
X83519520Y-60074650D01*
X83532132Y-60053607D01*
X83546747Y-60033901D01*
X83563223Y-60015723D01*
X83581401Y-59999247D01*
X83601107Y-59984632D01*
X83622150Y-59972020D01*
X83644329Y-59961530D01*
X83667428Y-59953265D01*
X83691227Y-59947304D01*
X83715495Y-59943704D01*
X83739999Y-59942500D01*
X84390001Y-59942500D01*
X84414505Y-59943704D01*
G37*
G04 #@! TD.AperFunction*
G04 #@! TA.AperFunction,SMDPad,CuDef*
G36*
X86464505Y-59943704D02*
G01*
X86488773Y-59947304D01*
X86512572Y-59953265D01*
X86535671Y-59961530D01*
X86557850Y-59972020D01*
X86578893Y-59984632D01*
X86598599Y-59999247D01*
X86616777Y-60015723D01*
X86633253Y-60033901D01*
X86647868Y-60053607D01*
X86660480Y-60074650D01*
X86670970Y-60096829D01*
X86679235Y-60119928D01*
X86685196Y-60143727D01*
X86688796Y-60167995D01*
X86690000Y-60192499D01*
X86690000Y-61092501D01*
X86688796Y-61117005D01*
X86685196Y-61141273D01*
X86679235Y-61165072D01*
X86670970Y-61188171D01*
X86660480Y-61210350D01*
X86647868Y-61231393D01*
X86633253Y-61251099D01*
X86616777Y-61269277D01*
X86598599Y-61285753D01*
X86578893Y-61300368D01*
X86557850Y-61312980D01*
X86535671Y-61323470D01*
X86512572Y-61331735D01*
X86488773Y-61337696D01*
X86464505Y-61341296D01*
X86440001Y-61342500D01*
X85789999Y-61342500D01*
X85765495Y-61341296D01*
X85741227Y-61337696D01*
X85717428Y-61331735D01*
X85694329Y-61323470D01*
X85672150Y-61312980D01*
X85651107Y-61300368D01*
X85631401Y-61285753D01*
X85613223Y-61269277D01*
X85596747Y-61251099D01*
X85582132Y-61231393D01*
X85569520Y-61210350D01*
X85559030Y-61188171D01*
X85550765Y-61165072D01*
X85544804Y-61141273D01*
X85541204Y-61117005D01*
X85540000Y-61092501D01*
X85540000Y-60192499D01*
X85541204Y-60167995D01*
X85544804Y-60143727D01*
X85550765Y-60119928D01*
X85559030Y-60096829D01*
X85569520Y-60074650D01*
X85582132Y-60053607D01*
X85596747Y-60033901D01*
X85613223Y-60015723D01*
X85631401Y-59999247D01*
X85651107Y-59984632D01*
X85672150Y-59972020D01*
X85694329Y-59961530D01*
X85717428Y-59953265D01*
X85741227Y-59947304D01*
X85765495Y-59943704D01*
X85789999Y-59942500D01*
X86440001Y-59942500D01*
X86464505Y-59943704D01*
G37*
G04 #@! TD.AperFunction*
D13*
X81280000Y-60960000D03*
D14*
X88900000Y-78740000D03*
X81280000Y-63500000D03*
X88900000Y-76200000D03*
X81280000Y-66040000D03*
X88900000Y-73660000D03*
X81280000Y-68580000D03*
X88900000Y-71120000D03*
X81280000Y-71120000D03*
X88900000Y-68580000D03*
X81280000Y-73660000D03*
X88900000Y-66040000D03*
X81280000Y-76200000D03*
X88900000Y-63500000D03*
X81280000Y-78740000D03*
X88900000Y-60960000D03*
G04 #@! TA.AperFunction,SMDPad,CuDef*
D10*
G36*
X86528005Y-77787204D02*
G01*
X86552273Y-77790804D01*
X86576072Y-77796765D01*
X86599171Y-77805030D01*
X86621350Y-77815520D01*
X86642393Y-77828132D01*
X86662099Y-77842747D01*
X86680277Y-77859223D01*
X86696753Y-77877401D01*
X86711368Y-77897107D01*
X86723980Y-77918150D01*
X86734470Y-77940329D01*
X86742735Y-77963428D01*
X86748696Y-77987227D01*
X86752296Y-78011495D01*
X86753500Y-78035999D01*
X86753500Y-78936001D01*
X86752296Y-78960505D01*
X86748696Y-78984773D01*
X86742735Y-79008572D01*
X86734470Y-79031671D01*
X86723980Y-79053850D01*
X86711368Y-79074893D01*
X86696753Y-79094599D01*
X86680277Y-79112777D01*
X86662099Y-79129253D01*
X86642393Y-79143868D01*
X86621350Y-79156480D01*
X86599171Y-79166970D01*
X86576072Y-79175235D01*
X86552273Y-79181196D01*
X86528005Y-79184796D01*
X86503501Y-79186000D01*
X85853499Y-79186000D01*
X85828995Y-79184796D01*
X85804727Y-79181196D01*
X85780928Y-79175235D01*
X85757829Y-79166970D01*
X85735650Y-79156480D01*
X85714607Y-79143868D01*
X85694901Y-79129253D01*
X85676723Y-79112777D01*
X85660247Y-79094599D01*
X85645632Y-79074893D01*
X85633020Y-79053850D01*
X85622530Y-79031671D01*
X85614265Y-79008572D01*
X85608304Y-78984773D01*
X85604704Y-78960505D01*
X85603500Y-78936001D01*
X85603500Y-78035999D01*
X85604704Y-78011495D01*
X85608304Y-77987227D01*
X85614265Y-77963428D01*
X85622530Y-77940329D01*
X85633020Y-77918150D01*
X85645632Y-77897107D01*
X85660247Y-77877401D01*
X85676723Y-77859223D01*
X85694901Y-77842747D01*
X85714607Y-77828132D01*
X85735650Y-77815520D01*
X85757829Y-77805030D01*
X85780928Y-77796765D01*
X85804727Y-77790804D01*
X85828995Y-77787204D01*
X85853499Y-77786000D01*
X86503501Y-77786000D01*
X86528005Y-77787204D01*
G37*
G04 #@! TD.AperFunction*
G04 #@! TA.AperFunction,SMDPad,CuDef*
G36*
X84478005Y-77787204D02*
G01*
X84502273Y-77790804D01*
X84526072Y-77796765D01*
X84549171Y-77805030D01*
X84571350Y-77815520D01*
X84592393Y-77828132D01*
X84612099Y-77842747D01*
X84630277Y-77859223D01*
X84646753Y-77877401D01*
X84661368Y-77897107D01*
X84673980Y-77918150D01*
X84684470Y-77940329D01*
X84692735Y-77963428D01*
X84698696Y-77987227D01*
X84702296Y-78011495D01*
X84703500Y-78035999D01*
X84703500Y-78936001D01*
X84702296Y-78960505D01*
X84698696Y-78984773D01*
X84692735Y-79008572D01*
X84684470Y-79031671D01*
X84673980Y-79053850D01*
X84661368Y-79074893D01*
X84646753Y-79094599D01*
X84630277Y-79112777D01*
X84612099Y-79129253D01*
X84592393Y-79143868D01*
X84571350Y-79156480D01*
X84549171Y-79166970D01*
X84526072Y-79175235D01*
X84502273Y-79181196D01*
X84478005Y-79184796D01*
X84453501Y-79186000D01*
X83803499Y-79186000D01*
X83778995Y-79184796D01*
X83754727Y-79181196D01*
X83730928Y-79175235D01*
X83707829Y-79166970D01*
X83685650Y-79156480D01*
X83664607Y-79143868D01*
X83644901Y-79129253D01*
X83626723Y-79112777D01*
X83610247Y-79094599D01*
X83595632Y-79074893D01*
X83583020Y-79053850D01*
X83572530Y-79031671D01*
X83564265Y-79008572D01*
X83558304Y-78984773D01*
X83554704Y-78960505D01*
X83553500Y-78936001D01*
X83553500Y-78035999D01*
X83554704Y-78011495D01*
X83558304Y-77987227D01*
X83564265Y-77963428D01*
X83572530Y-77940329D01*
X83583020Y-77918150D01*
X83595632Y-77897107D01*
X83610247Y-77877401D01*
X83626723Y-77859223D01*
X83644901Y-77842747D01*
X83664607Y-77828132D01*
X83685650Y-77815520D01*
X83707829Y-77805030D01*
X83730928Y-77796765D01*
X83754727Y-77790804D01*
X83778995Y-77787204D01*
X83803499Y-77786000D01*
X84453501Y-77786000D01*
X84478005Y-77787204D01*
G37*
G04 #@! TD.AperFunction*
D15*
X79692500Y-69278500D03*
X85407500Y-69278500D03*
X91725750Y-67849750D03*
X92392500Y-76263500D03*
X86487000Y-62103000D03*
X95313500Y-72136000D03*
X94170500Y-78803500D03*
X83883500Y-73088500D03*
X79692500Y-74358500D03*
X79692500Y-71818500D03*
X79057500Y-66103500D03*
X83883500Y-66738500D03*
X83883500Y-71183500D03*
X95313500Y-63309500D03*
X86233000Y-76454000D03*
X86106000Y-73088500D03*
X82486500Y-67564000D03*
X85534500Y-68135500D03*
X83375500Y-69913500D03*
X90297000Y-66421000D03*
X89852500Y-69913500D03*
X80200500Y-67056000D03*
X85852000Y-67564000D03*
X84518500Y-70548500D03*
X85534500Y-72009000D03*
D16*
X79492501Y-66659361D02*
X80010499Y-66141363D01*
X80010499Y-65468001D02*
X80708999Y-64769501D01*
X79692500Y-69278500D02*
X79492501Y-69078501D01*
X79492501Y-69078501D02*
X79492501Y-66659361D01*
X80010499Y-66141363D02*
X80010499Y-65468001D01*
X80708999Y-64769501D02*
X84973001Y-64769501D01*
X85797500Y-65594000D02*
X85788500Y-65585000D01*
X85788500Y-65585000D02*
X85788500Y-65024000D01*
X87376000Y-65024000D02*
X88900000Y-63500000D01*
X85217000Y-65024000D02*
X84963000Y-64770000D01*
X84973001Y-64769501D02*
X84963000Y-64770000D01*
X85788500Y-65024000D02*
X85217000Y-65024000D01*
X85797500Y-65594000D02*
X86367500Y-65024000D01*
X86367500Y-65024000D02*
X86550500Y-65024000D01*
X85797500Y-66294000D02*
X85797500Y-65594000D01*
X85788500Y-65024000D02*
X86550500Y-65024000D01*
X86550500Y-65024000D02*
X87376000Y-65024000D01*
D17*
X85797500Y-66294000D02*
X86106000Y-66294000D01*
D16*
X85378364Y-65180136D02*
X85378364Y-65497636D01*
X85378364Y-65180136D02*
X85797500Y-65594000D01*
X84963000Y-64770000D02*
X85378364Y-65180136D01*
X85378364Y-65497636D02*
X85090000Y-65786000D01*
X85090000Y-66161500D02*
X85222500Y-66294000D01*
X85222500Y-66294000D02*
X85797500Y-66294000D01*
X85090000Y-65786000D02*
X85090000Y-66161500D01*
D18*
X87185500Y-67945000D02*
X87185500Y-67373500D01*
X87185500Y-67373500D02*
X86106000Y-66294000D01*
D19*
X85852000Y-69278500D02*
X87185500Y-67945000D01*
X85407500Y-69278500D02*
X85852000Y-69278500D01*
X87185500Y-67945000D02*
X87185500Y-65532000D01*
D18*
X87185500Y-67373500D02*
X87185500Y-65532000D01*
X87185500Y-65532000D02*
X87185500Y-65611500D01*
D19*
X86372500Y-66294000D02*
X86106000Y-66294000D01*
X87185500Y-67107000D02*
X86372500Y-66294000D01*
X87185500Y-67945000D02*
X87185500Y-67107000D01*
D16*
X91059000Y-67183000D02*
X91059000Y-65659000D01*
X88328500Y-64325500D02*
X88201500Y-64198500D01*
X91059000Y-65659000D02*
X89725500Y-64325500D01*
X89725500Y-64325500D02*
X88900000Y-63500000D01*
X89725500Y-64325500D02*
X88328500Y-64325500D01*
D17*
X88201500Y-64198500D02*
X88900000Y-63500000D01*
X86106000Y-66294000D02*
X88201500Y-64198500D01*
D16*
X91059000Y-67183000D02*
X91258999Y-67382999D01*
X91258999Y-67382999D02*
X91725750Y-67849750D01*
X93812490Y-72591893D02*
X93431490Y-72972893D01*
X93812490Y-69936490D02*
X93812490Y-72591893D01*
X93431490Y-72972893D02*
X93431490Y-75034010D01*
X91725750Y-67849750D02*
X93812490Y-69936490D01*
X93431490Y-75034010D02*
X93431490Y-75224510D01*
X93431490Y-75224510D02*
X92392500Y-76263500D01*
X92392500Y-76263500D02*
X92392500Y-76263500D01*
D18*
X84065000Y-61342500D02*
X84825500Y-62103000D01*
X84065000Y-60642500D02*
X84065000Y-61342500D01*
X84825500Y-62103000D02*
X86487000Y-62103000D01*
X86487000Y-62103000D02*
X86487000Y-62103000D01*
D16*
X86995000Y-64325500D02*
X88328500Y-64325500D01*
X86487000Y-62103000D02*
X86487000Y-63817500D01*
X85852499Y-64769501D02*
X86487000Y-64135000D01*
X84973001Y-64769501D02*
X85852499Y-64769501D01*
X86487000Y-63817500D02*
X86487000Y-64135000D01*
X86487000Y-64135000D02*
X86995000Y-64325500D01*
X85788500Y-65024000D02*
X86106000Y-65024000D01*
X86106000Y-65024000D02*
X86614000Y-64516000D01*
X92192501Y-76463499D02*
X92392500Y-76263500D01*
X88291637Y-77469501D02*
X91186499Y-77469501D01*
X91186499Y-77469501D02*
X92192501Y-76463499D01*
X87275138Y-78486000D02*
X88291637Y-77469501D01*
X86178500Y-78486000D02*
X87275138Y-78486000D01*
D19*
X79692500Y-74358500D02*
X79692500Y-71818500D01*
X78695510Y-66465490D02*
X79057500Y-66103500D01*
X79692500Y-71818500D02*
X78695510Y-70821510D01*
X78695510Y-70821510D02*
X78695510Y-66465490D01*
X80148630Y-63500000D02*
X81280000Y-63500000D01*
X79057500Y-64591130D02*
X80148630Y-63500000D01*
X79057500Y-66103500D02*
X79057500Y-64591130D01*
D20*
X81470500Y-63309500D02*
X81280000Y-63500000D01*
D18*
X82837999Y-70137999D02*
X81280000Y-68580000D01*
X83883500Y-71183500D02*
X82837999Y-70137999D01*
D16*
X88963500Y-78803500D02*
X88900000Y-78740000D01*
X94170500Y-78803500D02*
X88963500Y-78803500D01*
X94170500Y-73279000D02*
X95313500Y-72136000D01*
X94170500Y-78803500D02*
X94170500Y-73279000D01*
X95313500Y-71853158D02*
X94551500Y-71091158D01*
X95313500Y-72136000D02*
X95313500Y-71853158D01*
X94551500Y-71091158D02*
X94551500Y-64071500D01*
X94551500Y-64071500D02*
X95313500Y-63309500D01*
X95313500Y-63309500D02*
X95313500Y-63309500D01*
X80480001Y-69379999D02*
X81280000Y-68580000D01*
X79692500Y-70323616D02*
X80480001Y-69536115D01*
X80480001Y-69536115D02*
X80480001Y-69379999D01*
X79692500Y-71818500D02*
X79692500Y-70323616D01*
X83683501Y-73288499D02*
X83883500Y-73088500D01*
X82042499Y-74929501D02*
X83683501Y-73288499D01*
X80263501Y-74929501D02*
X82042499Y-74929501D01*
X79692500Y-74358500D02*
X80263501Y-74929501D01*
X84128500Y-77786000D02*
X85460500Y-76454000D01*
X84128500Y-78486000D02*
X84128500Y-77786000D01*
X85460500Y-76454000D02*
X86233000Y-76454000D01*
X86233000Y-76454000D02*
X86233000Y-76454000D01*
D18*
X91503500Y-60579000D02*
X90202502Y-60579000D01*
X89446001Y-59822499D02*
X88069001Y-59822499D01*
X90202502Y-60579000D02*
X89446001Y-59822499D01*
X87249000Y-60642500D02*
X86115000Y-60642500D01*
X88069001Y-59822499D02*
X87249000Y-60642500D01*
D20*
X82486500Y-67564000D02*
X83058000Y-68135500D01*
X83058000Y-68135500D02*
X85534500Y-68135500D01*
X85534500Y-68135500D02*
X85534500Y-68135500D01*
D18*
X90297000Y-68866502D02*
X90297000Y-66421000D01*
X90297000Y-66421000D02*
X90297000Y-66421000D01*
X89250002Y-69913500D02*
X89852500Y-69913500D01*
X83375500Y-69913500D02*
X89250002Y-69913500D01*
X90052499Y-69713501D02*
X90052499Y-69111003D01*
X90052499Y-69111003D02*
X90297000Y-68866502D01*
X89852500Y-69913500D02*
X90052499Y-69713501D01*
D20*
X82794310Y-66929000D02*
X83429310Y-67564000D01*
X80264000Y-67119500D02*
X80454500Y-67119500D01*
X83429310Y-67564000D02*
X85852000Y-67564000D01*
X80200500Y-67056000D02*
X80264000Y-67119500D01*
X80454500Y-67119500D02*
X80518000Y-67183000D01*
X80518000Y-67183000D02*
X81851500Y-67183000D01*
X82105500Y-66929000D02*
X82794310Y-66929000D01*
X81851500Y-67183000D02*
X82105500Y-66929000D01*
X85852000Y-67564000D02*
X85852000Y-67564000D01*
D18*
X84518500Y-71552870D02*
X82411370Y-73660000D01*
X82411370Y-73660000D02*
X81280000Y-73660000D01*
X84518500Y-70548500D02*
X84518500Y-71552870D01*
X85534500Y-74485500D02*
X81280000Y-78740000D01*
X85534500Y-72009000D02*
X85534500Y-74485500D01*
D21*
G36*
X80342144Y-59827187D02*
G01*
X80279865Y-59860476D01*
X80225276Y-59905276D01*
X80180476Y-59959865D01*
X80147187Y-60022144D01*
X80126688Y-60089722D01*
X80119766Y-60160000D01*
X80119766Y-61760000D01*
X80126688Y-61830278D01*
X80147187Y-61897856D01*
X80180476Y-61960135D01*
X80225276Y-62014724D01*
X80279865Y-62059524D01*
X80342144Y-62092813D01*
X80409722Y-62113312D01*
X80480000Y-62120234D01*
X80917016Y-62120234D01*
X80661927Y-62213237D01*
X80422768Y-62358542D01*
X80216552Y-62547712D01*
X80051204Y-62773478D01*
X79933078Y-63027164D01*
X79897387Y-63144839D01*
X80016514Y-63365500D01*
X81145500Y-63365500D01*
X81145500Y-63345500D01*
X81414500Y-63345500D01*
X81414500Y-63365500D01*
X82543486Y-63365500D01*
X82662613Y-63144839D01*
X82626922Y-63027164D01*
X82508796Y-62773478D01*
X82343448Y-62547712D01*
X82137232Y-62358542D01*
X81898073Y-62213237D01*
X81642984Y-62120234D01*
X82080000Y-62120234D01*
X82150278Y-62113312D01*
X82217856Y-62092813D01*
X82280135Y-62059524D01*
X82334724Y-62014724D01*
X82379524Y-61960135D01*
X82412813Y-61897856D01*
X82433312Y-61830278D01*
X82440234Y-61760000D01*
X82440234Y-60160000D01*
X82433312Y-60089722D01*
X82412813Y-60022144D01*
X82379524Y-59959865D01*
X82334724Y-59905276D01*
X82280135Y-59860476D01*
X82217856Y-59827187D01*
X82192515Y-59819500D01*
X83260489Y-59819500D01*
X83232609Y-59853472D01*
X83176217Y-59958973D01*
X83141491Y-60073448D01*
X83129766Y-60192499D01*
X83129766Y-61092501D01*
X83141491Y-61211552D01*
X83176217Y-61326027D01*
X83232609Y-61431528D01*
X83308499Y-61524001D01*
X83400972Y-61599891D01*
X83506473Y-61656283D01*
X83620948Y-61691009D01*
X83719659Y-61700731D01*
X83731498Y-61710447D01*
X84457549Y-62436498D01*
X84473079Y-62455421D01*
X84548604Y-62517404D01*
X84634771Y-62563461D01*
X84699905Y-62583219D01*
X84728266Y-62591822D01*
X84738481Y-62592828D01*
X84801144Y-62599000D01*
X84801150Y-62599000D01*
X84825499Y-62601398D01*
X84849848Y-62599000D01*
X85859000Y-62599000D01*
X85859001Y-63786645D01*
X85859000Y-63786655D01*
X85859000Y-63874874D01*
X85592374Y-64141501D01*
X84988769Y-64141501D01*
X84963000Y-64138963D01*
X84961001Y-64139160D01*
X84959004Y-64138976D01*
X84934930Y-64141501D01*
X82548385Y-64141501D01*
X82626922Y-63972836D01*
X82662613Y-63855161D01*
X82543486Y-63634500D01*
X81414500Y-63634500D01*
X81414500Y-63654500D01*
X81145500Y-63654500D01*
X81145500Y-63634500D01*
X80016514Y-63634500D01*
X79897387Y-63855161D01*
X79933078Y-63972836D01*
X80051204Y-64226522D01*
X80183380Y-64406994D01*
X79588247Y-65002128D01*
X79564289Y-65021790D01*
X79544627Y-65045748D01*
X79544625Y-65045750D01*
X79519802Y-65075997D01*
X79485811Y-65117415D01*
X79427496Y-65226513D01*
X79391586Y-65344892D01*
X79382499Y-65437155D01*
X79382499Y-65437165D01*
X79379462Y-65468001D01*
X79382499Y-65498837D01*
X79382499Y-65881237D01*
X79070248Y-66193489D01*
X79046291Y-66213150D01*
X79026629Y-66237108D01*
X79026627Y-66237110D01*
X78967813Y-66308775D01*
X78909498Y-66417874D01*
X78876990Y-66525040D01*
X78873589Y-66536252D01*
X78868743Y-66585460D01*
X78861464Y-66659361D01*
X78864502Y-66690207D01*
X78864501Y-69047665D01*
X78861464Y-69078501D01*
X78864501Y-69109337D01*
X78864501Y-69109346D01*
X78873588Y-69201609D01*
X78909498Y-69319988D01*
X78967812Y-69429086D01*
X79046290Y-69524712D01*
X79070253Y-69544378D01*
X79270249Y-69744374D01*
X79341914Y-69803188D01*
X79451013Y-69861502D01*
X79569390Y-69897412D01*
X79692499Y-69909537D01*
X79815609Y-69897412D01*
X79933987Y-69861502D01*
X80043086Y-69803188D01*
X80138711Y-69724711D01*
X80217188Y-69629086D01*
X80251695Y-69564526D01*
X80422768Y-69721458D01*
X80661927Y-69866763D01*
X80924838Y-69962618D01*
X81145498Y-69844281D01*
X81145498Y-69965558D01*
X80942078Y-70006021D01*
X80731245Y-70093351D01*
X80541500Y-70220135D01*
X80380135Y-70381500D01*
X80253351Y-70571245D01*
X80166021Y-70782078D01*
X80121500Y-71005898D01*
X80121500Y-71234102D01*
X80166021Y-71457922D01*
X80253351Y-71668755D01*
X80380135Y-71858500D01*
X80541500Y-72019865D01*
X80731245Y-72146649D01*
X80942078Y-72233979D01*
X81165898Y-72278500D01*
X81394102Y-72278500D01*
X81617922Y-72233979D01*
X81828755Y-72146649D01*
X82018500Y-72019865D01*
X82179865Y-71858500D01*
X82306649Y-71668755D01*
X82393979Y-71457922D01*
X82438500Y-71234102D01*
X82438500Y-71005898D01*
X82393979Y-70782078D01*
X82306649Y-70571245D01*
X82179865Y-70381500D01*
X82018500Y-70220135D01*
X81828755Y-70093351D01*
X81617922Y-70006021D01*
X81414502Y-69965558D01*
X81414502Y-69844281D01*
X81635162Y-69962618D01*
X81898073Y-69866763D01*
X82137232Y-69721458D01*
X82343448Y-69532288D01*
X82508796Y-69306522D01*
X82626922Y-69052836D01*
X82662613Y-68935161D01*
X82543486Y-68714500D01*
X81414500Y-68714500D01*
X81414500Y-68734500D01*
X81145500Y-68734500D01*
X81145500Y-68714500D01*
X81125500Y-68714500D01*
X81125500Y-68445500D01*
X81145500Y-68445500D01*
X81145500Y-68425500D01*
X81414500Y-68425500D01*
X81414500Y-68445500D01*
X82543486Y-68445500D01*
X82592829Y-68354102D01*
X82699325Y-68460598D01*
X82714460Y-68479040D01*
X82732902Y-68494175D01*
X82732906Y-68494179D01*
X82788081Y-68539460D01*
X82843936Y-68569315D01*
X82872077Y-68584357D01*
X82963218Y-68612004D01*
X83034251Y-68619000D01*
X83034260Y-68619000D01*
X83057999Y-68621338D01*
X83081738Y-68619000D01*
X85252836Y-68619000D01*
X85269951Y-68630436D01*
X85371592Y-68672537D01*
X85479493Y-68694000D01*
X85589507Y-68694000D01*
X85697408Y-68672537D01*
X85707775Y-68668243D01*
X85631018Y-68745000D01*
X85578947Y-68745000D01*
X85570408Y-68741463D01*
X85462507Y-68720000D01*
X85352493Y-68720000D01*
X85244592Y-68741463D01*
X85142951Y-68783564D01*
X85051477Y-68844685D01*
X84973685Y-68922477D01*
X84912564Y-69013951D01*
X84870463Y-69115592D01*
X84849000Y-69223493D01*
X84849000Y-69333507D01*
X84865707Y-69417500D01*
X83637480Y-69417500D01*
X83538408Y-69376463D01*
X83430507Y-69355000D01*
X83320493Y-69355000D01*
X83212592Y-69376463D01*
X83110951Y-69418564D01*
X83019477Y-69479685D01*
X82941685Y-69557477D01*
X82880564Y-69648951D01*
X82838463Y-69750592D01*
X82817000Y-69858493D01*
X82817000Y-69968507D01*
X82838463Y-70076408D01*
X82880564Y-70178049D01*
X82941685Y-70269523D01*
X83019477Y-70347315D01*
X83110951Y-70408436D01*
X83212592Y-70450537D01*
X83320493Y-70472000D01*
X83430507Y-70472000D01*
X83538408Y-70450537D01*
X83637480Y-70409500D01*
X83976707Y-70409500D01*
X83960000Y-70493493D01*
X83960000Y-70603507D01*
X83981463Y-70711408D01*
X84022500Y-70810481D01*
X84022501Y-71347419D01*
X82287434Y-73082487D01*
X82179865Y-72921500D01*
X82018500Y-72760135D01*
X81828755Y-72633351D01*
X81617922Y-72546021D01*
X81394102Y-72501500D01*
X81165898Y-72501500D01*
X80942078Y-72546021D01*
X80731245Y-72633351D01*
X80541500Y-72760135D01*
X80380135Y-72921500D01*
X80253351Y-73111245D01*
X80166021Y-73322078D01*
X80121500Y-73545898D01*
X80121500Y-73774102D01*
X80166021Y-73997922D01*
X80253351Y-74208755D01*
X80380135Y-74398500D01*
X80541500Y-74559865D01*
X80731245Y-74686649D01*
X80942078Y-74773979D01*
X81165898Y-74818500D01*
X81394102Y-74818500D01*
X81617922Y-74773979D01*
X81828755Y-74686649D01*
X82018500Y-74559865D01*
X82179865Y-74398500D01*
X82306649Y-74208755D01*
X82328501Y-74156000D01*
X82387021Y-74156000D01*
X82411370Y-74158398D01*
X82435719Y-74156000D01*
X82435726Y-74156000D01*
X82508603Y-74148822D01*
X82602099Y-74120461D01*
X82688266Y-74074404D01*
X82763791Y-74012421D01*
X82779321Y-73993498D01*
X84852003Y-71920817D01*
X84870921Y-71905291D01*
X84932904Y-71829766D01*
X84978961Y-71743599D01*
X84990606Y-71705209D01*
X85007323Y-71650103D01*
X85016898Y-71552870D01*
X85014500Y-71528519D01*
X85014500Y-70810480D01*
X85055537Y-70711408D01*
X85077000Y-70603507D01*
X85077000Y-70493493D01*
X85060293Y-70409500D01*
X87981426Y-70409500D01*
X87873351Y-70571245D01*
X87786021Y-70782078D01*
X87741500Y-71005898D01*
X87741500Y-71234102D01*
X87786021Y-71457922D01*
X87873351Y-71668755D01*
X88000135Y-71858500D01*
X88161500Y-72019865D01*
X88351245Y-72146649D01*
X88562078Y-72233979D01*
X88785898Y-72278500D01*
X89014102Y-72278500D01*
X89237922Y-72233979D01*
X89448755Y-72146649D01*
X89638500Y-72019865D01*
X89799865Y-71858500D01*
X89926649Y-71668755D01*
X90013979Y-71457922D01*
X90058500Y-71234102D01*
X90058500Y-71005898D01*
X90013979Y-70782078D01*
X89926649Y-70571245D01*
X89860335Y-70472000D01*
X89907507Y-70472000D01*
X90015408Y-70450537D01*
X90117049Y-70408436D01*
X90208523Y-70347315D01*
X90286315Y-70269523D01*
X90347436Y-70178049D01*
X90388195Y-70079648D01*
X90404920Y-70065922D01*
X90466903Y-69990397D01*
X90512960Y-69904230D01*
X90532718Y-69839096D01*
X90541321Y-69810735D01*
X90544961Y-69773773D01*
X90548499Y-69737857D01*
X90548499Y-69737851D01*
X90550897Y-69713502D01*
X90548499Y-69689153D01*
X90548499Y-69316452D01*
X90630498Y-69234453D01*
X90649421Y-69218923D01*
X90711404Y-69143398D01*
X90748845Y-69073351D01*
X90757461Y-69057232D01*
X90785823Y-68963735D01*
X90795398Y-68866502D01*
X90793000Y-68842151D01*
X90793000Y-67805125D01*
X90793125Y-67805250D01*
X91303498Y-68315624D01*
X91303503Y-68315628D01*
X93184490Y-70196616D01*
X93184491Y-72331767D01*
X93009242Y-72507016D01*
X92985279Y-72526682D01*
X92906801Y-72622308D01*
X92848487Y-72731406D01*
X92812577Y-72849785D01*
X92803490Y-72942048D01*
X92803490Y-72942057D01*
X92800453Y-72972893D01*
X92803490Y-73003729D01*
X92803491Y-74964383D01*
X91970252Y-75797623D01*
X91946289Y-75817289D01*
X91926623Y-75841252D01*
X91770255Y-75997620D01*
X91770249Y-75997625D01*
X90926374Y-76841501D01*
X89864678Y-76841501D01*
X89926649Y-76748755D01*
X90013979Y-76537922D01*
X90058500Y-76314102D01*
X90058500Y-76085898D01*
X90013979Y-75862078D01*
X89926649Y-75651245D01*
X89799865Y-75461500D01*
X89638500Y-75300135D01*
X89448755Y-75173351D01*
X89237922Y-75086021D01*
X89014102Y-75041500D01*
X88785898Y-75041500D01*
X88562078Y-75086021D01*
X88351245Y-75173351D01*
X88161500Y-75300135D01*
X88000135Y-75461500D01*
X87873351Y-75651245D01*
X87786021Y-75862078D01*
X87741500Y-76085898D01*
X87741500Y-76314102D01*
X87786021Y-76537922D01*
X87873351Y-76748755D01*
X87987694Y-76919881D01*
X87941050Y-76944812D01*
X87869385Y-77003627D01*
X87845426Y-77023290D01*
X87825764Y-77047248D01*
X87068041Y-77804972D01*
X87067283Y-77802473D01*
X87010891Y-77696972D01*
X86935001Y-77604499D01*
X86842528Y-77528609D01*
X86737027Y-77472217D01*
X86622552Y-77437491D01*
X86503501Y-77425766D01*
X85853499Y-77425766D01*
X85734448Y-77437491D01*
X85619973Y-77472217D01*
X85514472Y-77528609D01*
X85421999Y-77604499D01*
X85346109Y-77696972D01*
X85328510Y-77729897D01*
X85321920Y-77662989D01*
X85286039Y-77544704D01*
X85227772Y-77435693D01*
X85149356Y-77340144D01*
X85053807Y-77261728D01*
X84944796Y-77203461D01*
X84826511Y-77167580D01*
X84703500Y-77155464D01*
X84419875Y-77158500D01*
X84263000Y-77315375D01*
X84263000Y-78351500D01*
X84283000Y-78351500D01*
X84283000Y-78620500D01*
X84263000Y-78620500D01*
X84263000Y-79656625D01*
X84419875Y-79813500D01*
X84703500Y-79816536D01*
X84826511Y-79804420D01*
X84944796Y-79768539D01*
X85053807Y-79710272D01*
X85149356Y-79631856D01*
X85227772Y-79536307D01*
X85286039Y-79427296D01*
X85321920Y-79309011D01*
X85328510Y-79242103D01*
X85346109Y-79275028D01*
X85421999Y-79367501D01*
X85514472Y-79443391D01*
X85619973Y-79499783D01*
X85734448Y-79534509D01*
X85853499Y-79546234D01*
X86503501Y-79546234D01*
X86622552Y-79534509D01*
X86737027Y-79499783D01*
X86842528Y-79443391D01*
X86935001Y-79367501D01*
X87010891Y-79275028D01*
X87067283Y-79169527D01*
X87084127Y-79114000D01*
X87244302Y-79114000D01*
X87275138Y-79117037D01*
X87305974Y-79114000D01*
X87305984Y-79114000D01*
X87398247Y-79104913D01*
X87516626Y-79069003D01*
X87537545Y-79057821D01*
X87517387Y-79095161D01*
X87553078Y-79212836D01*
X87671204Y-79466522D01*
X87836552Y-79692288D01*
X88042768Y-79881458D01*
X88250222Y-80007500D01*
X78679000Y-80007500D01*
X78679000Y-78625898D01*
X80121500Y-78625898D01*
X80121500Y-78854102D01*
X80166021Y-79077922D01*
X80253351Y-79288755D01*
X80380135Y-79478500D01*
X80541500Y-79639865D01*
X80731245Y-79766649D01*
X80942078Y-79853979D01*
X81165898Y-79898500D01*
X81394102Y-79898500D01*
X81617922Y-79853979D01*
X81828755Y-79766649D01*
X82018500Y-79639865D01*
X82179865Y-79478500D01*
X82306649Y-79288755D01*
X82349211Y-79186000D01*
X82922964Y-79186000D01*
X82935080Y-79309011D01*
X82970961Y-79427296D01*
X83029228Y-79536307D01*
X83107644Y-79631856D01*
X83203193Y-79710272D01*
X83312204Y-79768539D01*
X83430489Y-79804420D01*
X83553500Y-79816536D01*
X83837125Y-79813500D01*
X83994000Y-79656625D01*
X83994000Y-78620500D01*
X83082875Y-78620500D01*
X82926000Y-78777375D01*
X82922964Y-79186000D01*
X82349211Y-79186000D01*
X82393979Y-79077922D01*
X82438500Y-78854102D01*
X82438500Y-78625898D01*
X82393979Y-78402078D01*
X82372127Y-78349322D01*
X82923056Y-77798393D01*
X82926000Y-78194625D01*
X83082875Y-78351500D01*
X83994000Y-78351500D01*
X83994000Y-77315375D01*
X83837125Y-77158500D01*
X83565853Y-77155596D01*
X85868003Y-74853447D01*
X85886921Y-74837921D01*
X85948904Y-74762396D01*
X85983062Y-74698490D01*
X85994961Y-74676230D01*
X86023323Y-74582733D01*
X86032898Y-74485500D01*
X86030500Y-74461149D01*
X86030500Y-73545898D01*
X87741500Y-73545898D01*
X87741500Y-73774102D01*
X87786021Y-73997922D01*
X87873351Y-74208755D01*
X88000135Y-74398500D01*
X88161500Y-74559865D01*
X88351245Y-74686649D01*
X88562078Y-74773979D01*
X88785898Y-74818500D01*
X89014102Y-74818500D01*
X89237922Y-74773979D01*
X89448755Y-74686649D01*
X89638500Y-74559865D01*
X89799865Y-74398500D01*
X89926649Y-74208755D01*
X90013979Y-73997922D01*
X90058500Y-73774102D01*
X90058500Y-73545898D01*
X90013979Y-73322078D01*
X89926649Y-73111245D01*
X89799865Y-72921500D01*
X89638500Y-72760135D01*
X89448755Y-72633351D01*
X89237922Y-72546021D01*
X89014102Y-72501500D01*
X88785898Y-72501500D01*
X88562078Y-72546021D01*
X88351245Y-72633351D01*
X88161500Y-72760135D01*
X88000135Y-72921500D01*
X87873351Y-73111245D01*
X87786021Y-73322078D01*
X87741500Y-73545898D01*
X86030500Y-73545898D01*
X86030500Y-72270980D01*
X86071537Y-72171908D01*
X86093000Y-72064007D01*
X86093000Y-71953993D01*
X86071537Y-71846092D01*
X86029436Y-71744451D01*
X85968315Y-71652977D01*
X85890523Y-71575185D01*
X85799049Y-71514064D01*
X85697408Y-71471963D01*
X85589507Y-71450500D01*
X85479493Y-71450500D01*
X85371592Y-71471963D01*
X85269951Y-71514064D01*
X85178477Y-71575185D01*
X85100685Y-71652977D01*
X85039564Y-71744451D01*
X84997463Y-71846092D01*
X84976000Y-71953993D01*
X84976000Y-72064007D01*
X84997463Y-72171908D01*
X85038500Y-72270981D01*
X85038501Y-74280049D01*
X81670678Y-77647873D01*
X81617922Y-77626021D01*
X81394102Y-77581500D01*
X81165898Y-77581500D01*
X80942078Y-77626021D01*
X80731245Y-77713351D01*
X80541500Y-77840135D01*
X80380135Y-78001500D01*
X80253351Y-78191245D01*
X80166021Y-78402078D01*
X80121500Y-78625898D01*
X78679000Y-78625898D01*
X78679000Y-76085898D01*
X80121500Y-76085898D01*
X80121500Y-76314102D01*
X80166021Y-76537922D01*
X80253351Y-76748755D01*
X80380135Y-76938500D01*
X80541500Y-77099865D01*
X80731245Y-77226649D01*
X80942078Y-77313979D01*
X81165898Y-77358500D01*
X81394102Y-77358500D01*
X81617922Y-77313979D01*
X81828755Y-77226649D01*
X82018500Y-77099865D01*
X82179865Y-76938500D01*
X82306649Y-76748755D01*
X82393979Y-76537922D01*
X82438500Y-76314102D01*
X82438500Y-76085898D01*
X82393979Y-75862078D01*
X82306649Y-75651245D01*
X82179865Y-75461500D01*
X82018500Y-75300135D01*
X81828755Y-75173351D01*
X81617922Y-75086021D01*
X81394102Y-75041500D01*
X81165898Y-75041500D01*
X80942078Y-75086021D01*
X80731245Y-75173351D01*
X80541500Y-75300135D01*
X80380135Y-75461500D01*
X80253351Y-75651245D01*
X80166021Y-75862078D01*
X80121500Y-76085898D01*
X78679000Y-76085898D01*
X78679000Y-59819500D01*
X80367485Y-59819500D01*
X80342144Y-59827187D01*
G37*
X80342144Y-59827187D02*
X80279865Y-59860476D01*
X80225276Y-59905276D01*
X80180476Y-59959865D01*
X80147187Y-60022144D01*
X80126688Y-60089722D01*
X80119766Y-60160000D01*
X80119766Y-61760000D01*
X80126688Y-61830278D01*
X80147187Y-61897856D01*
X80180476Y-61960135D01*
X80225276Y-62014724D01*
X80279865Y-62059524D01*
X80342144Y-62092813D01*
X80409722Y-62113312D01*
X80480000Y-62120234D01*
X80917016Y-62120234D01*
X80661927Y-62213237D01*
X80422768Y-62358542D01*
X80216552Y-62547712D01*
X80051204Y-62773478D01*
X79933078Y-63027164D01*
X79897387Y-63144839D01*
X80016514Y-63365500D01*
X81145500Y-63365500D01*
X81145500Y-63345500D01*
X81414500Y-63345500D01*
X81414500Y-63365500D01*
X82543486Y-63365500D01*
X82662613Y-63144839D01*
X82626922Y-63027164D01*
X82508796Y-62773478D01*
X82343448Y-62547712D01*
X82137232Y-62358542D01*
X81898073Y-62213237D01*
X81642984Y-62120234D01*
X82080000Y-62120234D01*
X82150278Y-62113312D01*
X82217856Y-62092813D01*
X82280135Y-62059524D01*
X82334724Y-62014724D01*
X82379524Y-61960135D01*
X82412813Y-61897856D01*
X82433312Y-61830278D01*
X82440234Y-61760000D01*
X82440234Y-60160000D01*
X82433312Y-60089722D01*
X82412813Y-60022144D01*
X82379524Y-59959865D01*
X82334724Y-59905276D01*
X82280135Y-59860476D01*
X82217856Y-59827187D01*
X82192515Y-59819500D01*
X83260489Y-59819500D01*
X83232609Y-59853472D01*
X83176217Y-59958973D01*
X83141491Y-60073448D01*
X83129766Y-60192499D01*
X83129766Y-61092501D01*
X83141491Y-61211552D01*
X83176217Y-61326027D01*
X83232609Y-61431528D01*
X83308499Y-61524001D01*
X83400972Y-61599891D01*
X83506473Y-61656283D01*
X83620948Y-61691009D01*
X83719659Y-61700731D01*
X83731498Y-61710447D01*
X84457549Y-62436498D01*
X84473079Y-62455421D01*
X84548604Y-62517404D01*
X84634771Y-62563461D01*
X84699905Y-62583219D01*
X84728266Y-62591822D01*
X84738481Y-62592828D01*
X84801144Y-62599000D01*
X84801150Y-62599000D01*
X84825499Y-62601398D01*
X84849848Y-62599000D01*
X85859000Y-62599000D01*
X85859001Y-63786645D01*
X85859000Y-63786655D01*
X85859000Y-63874874D01*
X85592374Y-64141501D01*
X84988769Y-64141501D01*
X84963000Y-64138963D01*
X84961001Y-64139160D01*
X84959004Y-64138976D01*
X84934930Y-64141501D01*
X82548385Y-64141501D01*
X82626922Y-63972836D01*
X82662613Y-63855161D01*
X82543486Y-63634500D01*
X81414500Y-63634500D01*
X81414500Y-63654500D01*
X81145500Y-63654500D01*
X81145500Y-63634500D01*
X80016514Y-63634500D01*
X79897387Y-63855161D01*
X79933078Y-63972836D01*
X80051204Y-64226522D01*
X80183380Y-64406994D01*
X79588247Y-65002128D01*
X79564289Y-65021790D01*
X79544627Y-65045748D01*
X79544625Y-65045750D01*
X79519802Y-65075997D01*
X79485811Y-65117415D01*
X79427496Y-65226513D01*
X79391586Y-65344892D01*
X79382499Y-65437155D01*
X79382499Y-65437165D01*
X79379462Y-65468001D01*
X79382499Y-65498837D01*
X79382499Y-65881237D01*
X79070248Y-66193489D01*
X79046291Y-66213150D01*
X79026629Y-66237108D01*
X79026627Y-66237110D01*
X78967813Y-66308775D01*
X78909498Y-66417874D01*
X78876990Y-66525040D01*
X78873589Y-66536252D01*
X78868743Y-66585460D01*
X78861464Y-66659361D01*
X78864502Y-66690207D01*
X78864501Y-69047665D01*
X78861464Y-69078501D01*
X78864501Y-69109337D01*
X78864501Y-69109346D01*
X78873588Y-69201609D01*
X78909498Y-69319988D01*
X78967812Y-69429086D01*
X79046290Y-69524712D01*
X79070253Y-69544378D01*
X79270249Y-69744374D01*
X79341914Y-69803188D01*
X79451013Y-69861502D01*
X79569390Y-69897412D01*
X79692499Y-69909537D01*
X79815609Y-69897412D01*
X79933987Y-69861502D01*
X80043086Y-69803188D01*
X80138711Y-69724711D01*
X80217188Y-69629086D01*
X80251695Y-69564526D01*
X80422768Y-69721458D01*
X80661927Y-69866763D01*
X80924838Y-69962618D01*
X81145498Y-69844281D01*
X81145498Y-69965558D01*
X80942078Y-70006021D01*
X80731245Y-70093351D01*
X80541500Y-70220135D01*
X80380135Y-70381500D01*
X80253351Y-70571245D01*
X80166021Y-70782078D01*
X80121500Y-71005898D01*
X80121500Y-71234102D01*
X80166021Y-71457922D01*
X80253351Y-71668755D01*
X80380135Y-71858500D01*
X80541500Y-72019865D01*
X80731245Y-72146649D01*
X80942078Y-72233979D01*
X81165898Y-72278500D01*
X81394102Y-72278500D01*
X81617922Y-72233979D01*
X81828755Y-72146649D01*
X82018500Y-72019865D01*
X82179865Y-71858500D01*
X82306649Y-71668755D01*
X82393979Y-71457922D01*
X82438500Y-71234102D01*
X82438500Y-71005898D01*
X82393979Y-70782078D01*
X82306649Y-70571245D01*
X82179865Y-70381500D01*
X82018500Y-70220135D01*
X81828755Y-70093351D01*
X81617922Y-70006021D01*
X81414502Y-69965558D01*
X81414502Y-69844281D01*
X81635162Y-69962618D01*
X81898073Y-69866763D01*
X82137232Y-69721458D01*
X82343448Y-69532288D01*
X82508796Y-69306522D01*
X82626922Y-69052836D01*
X82662613Y-68935161D01*
X82543486Y-68714500D01*
X81414500Y-68714500D01*
X81414500Y-68734500D01*
X81145500Y-68734500D01*
X81145500Y-68714500D01*
X81125500Y-68714500D01*
X81125500Y-68445500D01*
X81145500Y-68445500D01*
X81145500Y-68425500D01*
X81414500Y-68425500D01*
X81414500Y-68445500D01*
X82543486Y-68445500D01*
X82592829Y-68354102D01*
X82699325Y-68460598D01*
X82714460Y-68479040D01*
X82732902Y-68494175D01*
X82732906Y-68494179D01*
X82788081Y-68539460D01*
X82843936Y-68569315D01*
X82872077Y-68584357D01*
X82963218Y-68612004D01*
X83034251Y-68619000D01*
X83034260Y-68619000D01*
X83057999Y-68621338D01*
X83081738Y-68619000D01*
X85252836Y-68619000D01*
X85269951Y-68630436D01*
X85371592Y-68672537D01*
X85479493Y-68694000D01*
X85589507Y-68694000D01*
X85697408Y-68672537D01*
X85707775Y-68668243D01*
X85631018Y-68745000D01*
X85578947Y-68745000D01*
X85570408Y-68741463D01*
X85462507Y-68720000D01*
X85352493Y-68720000D01*
X85244592Y-68741463D01*
X85142951Y-68783564D01*
X85051477Y-68844685D01*
X84973685Y-68922477D01*
X84912564Y-69013951D01*
X84870463Y-69115592D01*
X84849000Y-69223493D01*
X84849000Y-69333507D01*
X84865707Y-69417500D01*
X83637480Y-69417500D01*
X83538408Y-69376463D01*
X83430507Y-69355000D01*
X83320493Y-69355000D01*
X83212592Y-69376463D01*
X83110951Y-69418564D01*
X83019477Y-69479685D01*
X82941685Y-69557477D01*
X82880564Y-69648951D01*
X82838463Y-69750592D01*
X82817000Y-69858493D01*
X82817000Y-69968507D01*
X82838463Y-70076408D01*
X82880564Y-70178049D01*
X82941685Y-70269523D01*
X83019477Y-70347315D01*
X83110951Y-70408436D01*
X83212592Y-70450537D01*
X83320493Y-70472000D01*
X83430507Y-70472000D01*
X83538408Y-70450537D01*
X83637480Y-70409500D01*
X83976707Y-70409500D01*
X83960000Y-70493493D01*
X83960000Y-70603507D01*
X83981463Y-70711408D01*
X84022500Y-70810481D01*
X84022501Y-71347419D01*
X82287434Y-73082487D01*
X82179865Y-72921500D01*
X82018500Y-72760135D01*
X81828755Y-72633351D01*
X81617922Y-72546021D01*
X81394102Y-72501500D01*
X81165898Y-72501500D01*
X80942078Y-72546021D01*
X80731245Y-72633351D01*
X80541500Y-72760135D01*
X80380135Y-72921500D01*
X80253351Y-73111245D01*
X80166021Y-73322078D01*
X80121500Y-73545898D01*
X80121500Y-73774102D01*
X80166021Y-73997922D01*
X80253351Y-74208755D01*
X80380135Y-74398500D01*
X80541500Y-74559865D01*
X80731245Y-74686649D01*
X80942078Y-74773979D01*
X81165898Y-74818500D01*
X81394102Y-74818500D01*
X81617922Y-74773979D01*
X81828755Y-74686649D01*
X82018500Y-74559865D01*
X82179865Y-74398500D01*
X82306649Y-74208755D01*
X82328501Y-74156000D01*
X82387021Y-74156000D01*
X82411370Y-74158398D01*
X82435719Y-74156000D01*
X82435726Y-74156000D01*
X82508603Y-74148822D01*
X82602099Y-74120461D01*
X82688266Y-74074404D01*
X82763791Y-74012421D01*
X82779321Y-73993498D01*
X84852003Y-71920817D01*
X84870921Y-71905291D01*
X84932904Y-71829766D01*
X84978961Y-71743599D01*
X84990606Y-71705209D01*
X85007323Y-71650103D01*
X85016898Y-71552870D01*
X85014500Y-71528519D01*
X85014500Y-70810480D01*
X85055537Y-70711408D01*
X85077000Y-70603507D01*
X85077000Y-70493493D01*
X85060293Y-70409500D01*
X87981426Y-70409500D01*
X87873351Y-70571245D01*
X87786021Y-70782078D01*
X87741500Y-71005898D01*
X87741500Y-71234102D01*
X87786021Y-71457922D01*
X87873351Y-71668755D01*
X88000135Y-71858500D01*
X88161500Y-72019865D01*
X88351245Y-72146649D01*
X88562078Y-72233979D01*
X88785898Y-72278500D01*
X89014102Y-72278500D01*
X89237922Y-72233979D01*
X89448755Y-72146649D01*
X89638500Y-72019865D01*
X89799865Y-71858500D01*
X89926649Y-71668755D01*
X90013979Y-71457922D01*
X90058500Y-71234102D01*
X90058500Y-71005898D01*
X90013979Y-70782078D01*
X89926649Y-70571245D01*
X89860335Y-70472000D01*
X89907507Y-70472000D01*
X90015408Y-70450537D01*
X90117049Y-70408436D01*
X90208523Y-70347315D01*
X90286315Y-70269523D01*
X90347436Y-70178049D01*
X90388195Y-70079648D01*
X90404920Y-70065922D01*
X90466903Y-69990397D01*
X90512960Y-69904230D01*
X90532718Y-69839096D01*
X90541321Y-69810735D01*
X90544961Y-69773773D01*
X90548499Y-69737857D01*
X90548499Y-69737851D01*
X90550897Y-69713502D01*
X90548499Y-69689153D01*
X90548499Y-69316452D01*
X90630498Y-69234453D01*
X90649421Y-69218923D01*
X90711404Y-69143398D01*
X90748845Y-69073351D01*
X90757461Y-69057232D01*
X90785823Y-68963735D01*
X90795398Y-68866502D01*
X90793000Y-68842151D01*
X90793000Y-67805125D01*
X90793125Y-67805250D01*
X91303498Y-68315624D01*
X91303503Y-68315628D01*
X93184490Y-70196616D01*
X93184491Y-72331767D01*
X93009242Y-72507016D01*
X92985279Y-72526682D01*
X92906801Y-72622308D01*
X92848487Y-72731406D01*
X92812577Y-72849785D01*
X92803490Y-72942048D01*
X92803490Y-72942057D01*
X92800453Y-72972893D01*
X92803490Y-73003729D01*
X92803491Y-74964383D01*
X91970252Y-75797623D01*
X91946289Y-75817289D01*
X91926623Y-75841252D01*
X91770255Y-75997620D01*
X91770249Y-75997625D01*
X90926374Y-76841501D01*
X89864678Y-76841501D01*
X89926649Y-76748755D01*
X90013979Y-76537922D01*
X90058500Y-76314102D01*
X90058500Y-76085898D01*
X90013979Y-75862078D01*
X89926649Y-75651245D01*
X89799865Y-75461500D01*
X89638500Y-75300135D01*
X89448755Y-75173351D01*
X89237922Y-75086021D01*
X89014102Y-75041500D01*
X88785898Y-75041500D01*
X88562078Y-75086021D01*
X88351245Y-75173351D01*
X88161500Y-75300135D01*
X88000135Y-75461500D01*
X87873351Y-75651245D01*
X87786021Y-75862078D01*
X87741500Y-76085898D01*
X87741500Y-76314102D01*
X87786021Y-76537922D01*
X87873351Y-76748755D01*
X87987694Y-76919881D01*
X87941050Y-76944812D01*
X87869385Y-77003627D01*
X87845426Y-77023290D01*
X87825764Y-77047248D01*
X87068041Y-77804972D01*
X87067283Y-77802473D01*
X87010891Y-77696972D01*
X86935001Y-77604499D01*
X86842528Y-77528609D01*
X86737027Y-77472217D01*
X86622552Y-77437491D01*
X86503501Y-77425766D01*
X85853499Y-77425766D01*
X85734448Y-77437491D01*
X85619973Y-77472217D01*
X85514472Y-77528609D01*
X85421999Y-77604499D01*
X85346109Y-77696972D01*
X85328510Y-77729897D01*
X85321920Y-77662989D01*
X85286039Y-77544704D01*
X85227772Y-77435693D01*
X85149356Y-77340144D01*
X85053807Y-77261728D01*
X84944796Y-77203461D01*
X84826511Y-77167580D01*
X84703500Y-77155464D01*
X84419875Y-77158500D01*
X84263000Y-77315375D01*
X84263000Y-78351500D01*
X84283000Y-78351500D01*
X84283000Y-78620500D01*
X84263000Y-78620500D01*
X84263000Y-79656625D01*
X84419875Y-79813500D01*
X84703500Y-79816536D01*
X84826511Y-79804420D01*
X84944796Y-79768539D01*
X85053807Y-79710272D01*
X85149356Y-79631856D01*
X85227772Y-79536307D01*
X85286039Y-79427296D01*
X85321920Y-79309011D01*
X85328510Y-79242103D01*
X85346109Y-79275028D01*
X85421999Y-79367501D01*
X85514472Y-79443391D01*
X85619973Y-79499783D01*
X85734448Y-79534509D01*
X85853499Y-79546234D01*
X86503501Y-79546234D01*
X86622552Y-79534509D01*
X86737027Y-79499783D01*
X86842528Y-79443391D01*
X86935001Y-79367501D01*
X87010891Y-79275028D01*
X87067283Y-79169527D01*
X87084127Y-79114000D01*
X87244302Y-79114000D01*
X87275138Y-79117037D01*
X87305974Y-79114000D01*
X87305984Y-79114000D01*
X87398247Y-79104913D01*
X87516626Y-79069003D01*
X87537545Y-79057821D01*
X87517387Y-79095161D01*
X87553078Y-79212836D01*
X87671204Y-79466522D01*
X87836552Y-79692288D01*
X88042768Y-79881458D01*
X88250222Y-80007500D01*
X78679000Y-80007500D01*
X78679000Y-78625898D01*
X80121500Y-78625898D01*
X80121500Y-78854102D01*
X80166021Y-79077922D01*
X80253351Y-79288755D01*
X80380135Y-79478500D01*
X80541500Y-79639865D01*
X80731245Y-79766649D01*
X80942078Y-79853979D01*
X81165898Y-79898500D01*
X81394102Y-79898500D01*
X81617922Y-79853979D01*
X81828755Y-79766649D01*
X82018500Y-79639865D01*
X82179865Y-79478500D01*
X82306649Y-79288755D01*
X82349211Y-79186000D01*
X82922964Y-79186000D01*
X82935080Y-79309011D01*
X82970961Y-79427296D01*
X83029228Y-79536307D01*
X83107644Y-79631856D01*
X83203193Y-79710272D01*
X83312204Y-79768539D01*
X83430489Y-79804420D01*
X83553500Y-79816536D01*
X83837125Y-79813500D01*
X83994000Y-79656625D01*
X83994000Y-78620500D01*
X83082875Y-78620500D01*
X82926000Y-78777375D01*
X82922964Y-79186000D01*
X82349211Y-79186000D01*
X82393979Y-79077922D01*
X82438500Y-78854102D01*
X82438500Y-78625898D01*
X82393979Y-78402078D01*
X82372127Y-78349322D01*
X82923056Y-77798393D01*
X82926000Y-78194625D01*
X83082875Y-78351500D01*
X83994000Y-78351500D01*
X83994000Y-77315375D01*
X83837125Y-77158500D01*
X83565853Y-77155596D01*
X85868003Y-74853447D01*
X85886921Y-74837921D01*
X85948904Y-74762396D01*
X85983062Y-74698490D01*
X85994961Y-74676230D01*
X86023323Y-74582733D01*
X86032898Y-74485500D01*
X86030500Y-74461149D01*
X86030500Y-73545898D01*
X87741500Y-73545898D01*
X87741500Y-73774102D01*
X87786021Y-73997922D01*
X87873351Y-74208755D01*
X88000135Y-74398500D01*
X88161500Y-74559865D01*
X88351245Y-74686649D01*
X88562078Y-74773979D01*
X88785898Y-74818500D01*
X89014102Y-74818500D01*
X89237922Y-74773979D01*
X89448755Y-74686649D01*
X89638500Y-74559865D01*
X89799865Y-74398500D01*
X89926649Y-74208755D01*
X90013979Y-73997922D01*
X90058500Y-73774102D01*
X90058500Y-73545898D01*
X90013979Y-73322078D01*
X89926649Y-73111245D01*
X89799865Y-72921500D01*
X89638500Y-72760135D01*
X89448755Y-72633351D01*
X89237922Y-72546021D01*
X89014102Y-72501500D01*
X88785898Y-72501500D01*
X88562078Y-72546021D01*
X88351245Y-72633351D01*
X88161500Y-72760135D01*
X88000135Y-72921500D01*
X87873351Y-73111245D01*
X87786021Y-73322078D01*
X87741500Y-73545898D01*
X86030500Y-73545898D01*
X86030500Y-72270980D01*
X86071537Y-72171908D01*
X86093000Y-72064007D01*
X86093000Y-71953993D01*
X86071537Y-71846092D01*
X86029436Y-71744451D01*
X85968315Y-71652977D01*
X85890523Y-71575185D01*
X85799049Y-71514064D01*
X85697408Y-71471963D01*
X85589507Y-71450500D01*
X85479493Y-71450500D01*
X85371592Y-71471963D01*
X85269951Y-71514064D01*
X85178477Y-71575185D01*
X85100685Y-71652977D01*
X85039564Y-71744451D01*
X84997463Y-71846092D01*
X84976000Y-71953993D01*
X84976000Y-72064007D01*
X84997463Y-72171908D01*
X85038500Y-72270981D01*
X85038501Y-74280049D01*
X81670678Y-77647873D01*
X81617922Y-77626021D01*
X81394102Y-77581500D01*
X81165898Y-77581500D01*
X80942078Y-77626021D01*
X80731245Y-77713351D01*
X80541500Y-77840135D01*
X80380135Y-78001500D01*
X80253351Y-78191245D01*
X80166021Y-78402078D01*
X80121500Y-78625898D01*
X78679000Y-78625898D01*
X78679000Y-76085898D01*
X80121500Y-76085898D01*
X80121500Y-76314102D01*
X80166021Y-76537922D01*
X80253351Y-76748755D01*
X80380135Y-76938500D01*
X80541500Y-77099865D01*
X80731245Y-77226649D01*
X80942078Y-77313979D01*
X81165898Y-77358500D01*
X81394102Y-77358500D01*
X81617922Y-77313979D01*
X81828755Y-77226649D01*
X82018500Y-77099865D01*
X82179865Y-76938500D01*
X82306649Y-76748755D01*
X82393979Y-76537922D01*
X82438500Y-76314102D01*
X82438500Y-76085898D01*
X82393979Y-75862078D01*
X82306649Y-75651245D01*
X82179865Y-75461500D01*
X82018500Y-75300135D01*
X81828755Y-75173351D01*
X81617922Y-75086021D01*
X81394102Y-75041500D01*
X81165898Y-75041500D01*
X80942078Y-75086021D01*
X80731245Y-75173351D01*
X80541500Y-75300135D01*
X80380135Y-75461500D01*
X80253351Y-75651245D01*
X80166021Y-75862078D01*
X80121500Y-76085898D01*
X78679000Y-76085898D01*
X78679000Y-59819500D01*
X80367485Y-59819500D01*
X80342144Y-59827187D01*
G36*
X92972542Y-60006561D02*
G01*
X92881442Y-60226494D01*
X92835000Y-60459973D01*
X92835000Y-60698027D01*
X92881442Y-60931506D01*
X92972542Y-61151439D01*
X93104797Y-61349374D01*
X93273126Y-61517703D01*
X93471061Y-61649958D01*
X93690994Y-61741058D01*
X93924473Y-61787500D01*
X94162527Y-61787500D01*
X94396006Y-61741058D01*
X94615939Y-61649958D01*
X94813874Y-61517703D01*
X94982203Y-61349374D01*
X95114458Y-61151439D01*
X95174530Y-61006413D01*
X95249626Y-61214453D01*
X95399227Y-61462469D01*
X95594339Y-61676534D01*
X95827464Y-61848421D01*
X96089643Y-61971525D01*
X96220484Y-62011210D01*
X96449000Y-61892758D01*
X96449000Y-60713500D01*
X96429000Y-60713500D01*
X96429000Y-60444500D01*
X96449000Y-60444500D01*
X96449000Y-60424500D01*
X96718000Y-60424500D01*
X96718000Y-60444500D01*
X96738000Y-60444500D01*
X96738000Y-60713500D01*
X96718000Y-60713500D01*
X96718000Y-61892758D01*
X96946516Y-62011210D01*
X97077357Y-61971525D01*
X97339536Y-61848421D01*
X97406500Y-61799047D01*
X97406501Y-80007500D01*
X89549778Y-80007500D01*
X89757232Y-79881458D01*
X89963448Y-79692288D01*
X90128796Y-79466522D01*
X90246922Y-79212836D01*
X90282613Y-79095161D01*
X90163486Y-78874500D01*
X89034500Y-78874500D01*
X89034500Y-78894500D01*
X88765500Y-78894500D01*
X88765500Y-78874500D01*
X88745500Y-78874500D01*
X88745500Y-78605500D01*
X88765500Y-78605500D01*
X88765500Y-78585500D01*
X89034500Y-78585500D01*
X89034500Y-78605500D01*
X90163486Y-78605500D01*
X90282613Y-78384839D01*
X90246922Y-78267164D01*
X90167920Y-78097501D01*
X91155663Y-78097501D01*
X91186499Y-78100538D01*
X91217335Y-78097501D01*
X91217345Y-78097501D01*
X91309608Y-78088414D01*
X91427987Y-78052504D01*
X91537085Y-77994190D01*
X91632710Y-77915712D01*
X91652376Y-77891749D01*
X92658375Y-76885751D01*
X92658380Y-76885745D01*
X92814748Y-76729377D01*
X92838711Y-76709711D01*
X92858377Y-76685748D01*
X93853743Y-75690383D01*
X93877701Y-75670721D01*
X93956179Y-75575096D01*
X93983323Y-75524312D01*
X94014493Y-75465998D01*
X94050403Y-75347620D01*
X94052523Y-75326098D01*
X94059490Y-75255355D01*
X94059490Y-75255348D01*
X94062527Y-75224510D01*
X94059490Y-75193672D01*
X94059490Y-73233018D01*
X94234738Y-73057770D01*
X94258701Y-73038104D01*
X94337179Y-72942479D01*
X94395493Y-72833381D01*
X94431403Y-72715002D01*
X94440490Y-72622739D01*
X94440490Y-72622730D01*
X94443527Y-72591894D01*
X94440490Y-72561058D01*
X94440490Y-69967325D01*
X94443527Y-69936489D01*
X94440490Y-69905653D01*
X94440490Y-69905644D01*
X94431403Y-69813381D01*
X94395493Y-69695002D01*
X94337179Y-69585904D01*
X94258701Y-69490279D01*
X94234744Y-69470618D01*
X92191628Y-67427503D01*
X92191624Y-67427498D01*
X91687000Y-66922875D01*
X91687000Y-65689838D01*
X91690037Y-65659000D01*
X91687000Y-65628162D01*
X91687000Y-65628154D01*
X91677913Y-65535891D01*
X91677351Y-65534036D01*
X91642003Y-65417512D01*
X91583689Y-65308414D01*
X91548460Y-65265488D01*
X91524874Y-65236748D01*
X91524873Y-65236747D01*
X91505211Y-65212789D01*
X91481253Y-65193127D01*
X90191378Y-63903253D01*
X90191374Y-63903248D01*
X90191373Y-63903247D01*
X90171711Y-63879289D01*
X90147752Y-63859626D01*
X90032573Y-63744447D01*
X90058500Y-63614102D01*
X90058500Y-63385898D01*
X90013979Y-63162078D01*
X89926649Y-62951245D01*
X89799865Y-62761500D01*
X89638500Y-62600135D01*
X89448755Y-62473351D01*
X89237922Y-62386021D01*
X89014102Y-62341500D01*
X88785898Y-62341500D01*
X88562078Y-62386021D01*
X88351245Y-62473351D01*
X88161500Y-62600135D01*
X88000135Y-62761500D01*
X87873351Y-62951245D01*
X87867871Y-62964474D01*
X87456185Y-63376161D01*
X87456174Y-63376170D01*
X87134844Y-63697500D01*
X87115000Y-63697500D01*
X87115000Y-62072154D01*
X87105913Y-61979891D01*
X87070003Y-61861512D01*
X87011689Y-61752414D01*
X86933211Y-61656789D01*
X86837585Y-61578311D01*
X86818048Y-61567868D01*
X86871501Y-61524001D01*
X86947391Y-61431528D01*
X87003783Y-61326027D01*
X87038509Y-61211552D01*
X87045704Y-61138500D01*
X87224651Y-61138500D01*
X87249000Y-61140898D01*
X87273349Y-61138500D01*
X87273356Y-61138500D01*
X87346233Y-61131322D01*
X87439729Y-61102961D01*
X87525896Y-61056904D01*
X87601421Y-60994921D01*
X87616951Y-60975998D01*
X87741500Y-60851449D01*
X87741500Y-61074102D01*
X87786021Y-61297922D01*
X87873351Y-61508755D01*
X88000135Y-61698500D01*
X88161500Y-61859865D01*
X88351245Y-61986649D01*
X88562078Y-62073979D01*
X88785898Y-62118500D01*
X89014102Y-62118500D01*
X89237922Y-62073979D01*
X89448755Y-61986649D01*
X89638500Y-61859865D01*
X89799865Y-61698500D01*
X89926649Y-61508755D01*
X90013979Y-61297922D01*
X90058500Y-61074102D01*
X90058500Y-61053635D01*
X90105269Y-61067822D01*
X90178146Y-61075000D01*
X90178153Y-61075000D01*
X90202502Y-61077398D01*
X90226851Y-61075000D01*
X90293266Y-61075000D01*
X90293266Y-61429000D01*
X90300188Y-61499278D01*
X90320687Y-61566856D01*
X90353976Y-61629135D01*
X90398776Y-61683724D01*
X90453365Y-61728524D01*
X90515644Y-61761813D01*
X90583222Y-61782312D01*
X90653500Y-61789234D01*
X92353500Y-61789234D01*
X92423778Y-61782312D01*
X92491356Y-61761813D01*
X92553635Y-61728524D01*
X92608224Y-61683724D01*
X92653024Y-61629135D01*
X92686313Y-61566856D01*
X92706812Y-61499278D01*
X92713734Y-61429000D01*
X92713734Y-59819500D01*
X93097531Y-59819500D01*
X92972542Y-60006561D01*
G37*
X92972542Y-60006561D02*
X92881442Y-60226494D01*
X92835000Y-60459973D01*
X92835000Y-60698027D01*
X92881442Y-60931506D01*
X92972542Y-61151439D01*
X93104797Y-61349374D01*
X93273126Y-61517703D01*
X93471061Y-61649958D01*
X93690994Y-61741058D01*
X93924473Y-61787500D01*
X94162527Y-61787500D01*
X94396006Y-61741058D01*
X94615939Y-61649958D01*
X94813874Y-61517703D01*
X94982203Y-61349374D01*
X95114458Y-61151439D01*
X95174530Y-61006413D01*
X95249626Y-61214453D01*
X95399227Y-61462469D01*
X95594339Y-61676534D01*
X95827464Y-61848421D01*
X96089643Y-61971525D01*
X96220484Y-62011210D01*
X96449000Y-61892758D01*
X96449000Y-60713500D01*
X96429000Y-60713500D01*
X96429000Y-60444500D01*
X96449000Y-60444500D01*
X96449000Y-60424500D01*
X96718000Y-60424500D01*
X96718000Y-60444500D01*
X96738000Y-60444500D01*
X96738000Y-60713500D01*
X96718000Y-60713500D01*
X96718000Y-61892758D01*
X96946516Y-62011210D01*
X97077357Y-61971525D01*
X97339536Y-61848421D01*
X97406500Y-61799047D01*
X97406501Y-80007500D01*
X89549778Y-80007500D01*
X89757232Y-79881458D01*
X89963448Y-79692288D01*
X90128796Y-79466522D01*
X90246922Y-79212836D01*
X90282613Y-79095161D01*
X90163486Y-78874500D01*
X89034500Y-78874500D01*
X89034500Y-78894500D01*
X88765500Y-78894500D01*
X88765500Y-78874500D01*
X88745500Y-78874500D01*
X88745500Y-78605500D01*
X88765500Y-78605500D01*
X88765500Y-78585500D01*
X89034500Y-78585500D01*
X89034500Y-78605500D01*
X90163486Y-78605500D01*
X90282613Y-78384839D01*
X90246922Y-78267164D01*
X90167920Y-78097501D01*
X91155663Y-78097501D01*
X91186499Y-78100538D01*
X91217335Y-78097501D01*
X91217345Y-78097501D01*
X91309608Y-78088414D01*
X91427987Y-78052504D01*
X91537085Y-77994190D01*
X91632710Y-77915712D01*
X91652376Y-77891749D01*
X92658375Y-76885751D01*
X92658380Y-76885745D01*
X92814748Y-76729377D01*
X92838711Y-76709711D01*
X92858377Y-76685748D01*
X93853743Y-75690383D01*
X93877701Y-75670721D01*
X93956179Y-75575096D01*
X93983323Y-75524312D01*
X94014493Y-75465998D01*
X94050403Y-75347620D01*
X94052523Y-75326098D01*
X94059490Y-75255355D01*
X94059490Y-75255348D01*
X94062527Y-75224510D01*
X94059490Y-75193672D01*
X94059490Y-73233018D01*
X94234738Y-73057770D01*
X94258701Y-73038104D01*
X94337179Y-72942479D01*
X94395493Y-72833381D01*
X94431403Y-72715002D01*
X94440490Y-72622739D01*
X94440490Y-72622730D01*
X94443527Y-72591894D01*
X94440490Y-72561058D01*
X94440490Y-69967325D01*
X94443527Y-69936489D01*
X94440490Y-69905653D01*
X94440490Y-69905644D01*
X94431403Y-69813381D01*
X94395493Y-69695002D01*
X94337179Y-69585904D01*
X94258701Y-69490279D01*
X94234744Y-69470618D01*
X92191628Y-67427503D01*
X92191624Y-67427498D01*
X91687000Y-66922875D01*
X91687000Y-65689838D01*
X91690037Y-65659000D01*
X91687000Y-65628162D01*
X91687000Y-65628154D01*
X91677913Y-65535891D01*
X91677351Y-65534036D01*
X91642003Y-65417512D01*
X91583689Y-65308414D01*
X91548460Y-65265488D01*
X91524874Y-65236748D01*
X91524873Y-65236747D01*
X91505211Y-65212789D01*
X91481253Y-65193127D01*
X90191378Y-63903253D01*
X90191374Y-63903248D01*
X90191373Y-63903247D01*
X90171711Y-63879289D01*
X90147752Y-63859626D01*
X90032573Y-63744447D01*
X90058500Y-63614102D01*
X90058500Y-63385898D01*
X90013979Y-63162078D01*
X89926649Y-62951245D01*
X89799865Y-62761500D01*
X89638500Y-62600135D01*
X89448755Y-62473351D01*
X89237922Y-62386021D01*
X89014102Y-62341500D01*
X88785898Y-62341500D01*
X88562078Y-62386021D01*
X88351245Y-62473351D01*
X88161500Y-62600135D01*
X88000135Y-62761500D01*
X87873351Y-62951245D01*
X87867871Y-62964474D01*
X87456185Y-63376161D01*
X87456174Y-63376170D01*
X87134844Y-63697500D01*
X87115000Y-63697500D01*
X87115000Y-62072154D01*
X87105913Y-61979891D01*
X87070003Y-61861512D01*
X87011689Y-61752414D01*
X86933211Y-61656789D01*
X86837585Y-61578311D01*
X86818048Y-61567868D01*
X86871501Y-61524001D01*
X86947391Y-61431528D01*
X87003783Y-61326027D01*
X87038509Y-61211552D01*
X87045704Y-61138500D01*
X87224651Y-61138500D01*
X87249000Y-61140898D01*
X87273349Y-61138500D01*
X87273356Y-61138500D01*
X87346233Y-61131322D01*
X87439729Y-61102961D01*
X87525896Y-61056904D01*
X87601421Y-60994921D01*
X87616951Y-60975998D01*
X87741500Y-60851449D01*
X87741500Y-61074102D01*
X87786021Y-61297922D01*
X87873351Y-61508755D01*
X88000135Y-61698500D01*
X88161500Y-61859865D01*
X88351245Y-61986649D01*
X88562078Y-62073979D01*
X88785898Y-62118500D01*
X89014102Y-62118500D01*
X89237922Y-62073979D01*
X89448755Y-61986649D01*
X89638500Y-61859865D01*
X89799865Y-61698500D01*
X89926649Y-61508755D01*
X90013979Y-61297922D01*
X90058500Y-61074102D01*
X90058500Y-61053635D01*
X90105269Y-61067822D01*
X90178146Y-61075000D01*
X90178153Y-61075000D01*
X90202502Y-61077398D01*
X90226851Y-61075000D01*
X90293266Y-61075000D01*
X90293266Y-61429000D01*
X90300188Y-61499278D01*
X90320687Y-61566856D01*
X90353976Y-61629135D01*
X90398776Y-61683724D01*
X90453365Y-61728524D01*
X90515644Y-61761813D01*
X90583222Y-61782312D01*
X90653500Y-61789234D01*
X92353500Y-61789234D01*
X92423778Y-61782312D01*
X92491356Y-61761813D01*
X92553635Y-61728524D01*
X92608224Y-61683724D01*
X92653024Y-61629135D01*
X92686313Y-61566856D01*
X92706812Y-61499278D01*
X92713734Y-61429000D01*
X92713734Y-59819500D01*
X93097531Y-59819500D01*
X92972542Y-60006561D01*
G36*
X82554080Y-65470989D02*
G01*
X82541964Y-65594000D01*
X82545000Y-66002625D01*
X82701875Y-66159500D01*
X83613000Y-66159500D01*
X83613000Y-66139500D01*
X83882000Y-66139500D01*
X83882000Y-66159500D01*
X83902000Y-66159500D01*
X83902000Y-66428500D01*
X83882000Y-66428500D01*
X83882000Y-66448500D01*
X83613000Y-66448500D01*
X83613000Y-66428500D01*
X82701875Y-66428500D01*
X82684875Y-66445500D01*
X82365987Y-66445500D01*
X82393979Y-66377922D01*
X82438500Y-66154102D01*
X82438500Y-65925898D01*
X82393979Y-65702078D01*
X82306649Y-65491245D01*
X82244011Y-65397501D01*
X82576372Y-65397501D01*
X82554080Y-65470989D01*
G37*
X82554080Y-65470989D02*
X82541964Y-65594000D01*
X82545000Y-66002625D01*
X82701875Y-66159500D01*
X83613000Y-66159500D01*
X83613000Y-66139500D01*
X83882000Y-66139500D01*
X83882000Y-66159500D01*
X83902000Y-66159500D01*
X83902000Y-66428500D01*
X83882000Y-66428500D01*
X83882000Y-66448500D01*
X83613000Y-66448500D01*
X83613000Y-66428500D01*
X82701875Y-66428500D01*
X82684875Y-66445500D01*
X82365987Y-66445500D01*
X82393979Y-66377922D01*
X82438500Y-66154102D01*
X82438500Y-65925898D01*
X82393979Y-65702078D01*
X82306649Y-65491245D01*
X82244011Y-65397501D01*
X82576372Y-65397501D01*
X82554080Y-65470989D01*
M02*
