%FSLAX45Y45*%
G04 Gerber Fmt 4.5, Leading zero omitted, Abs format (unit mm)*
G04 Created by KiCad (PCBNEW (5.1.5)-3) date 2020-06-23 19:18:01*
%MOMM*%
%LPD*%
G04 APERTURE LIST*
%TA.AperFunction,Profile*%
%ADD10C,0.050000*%
%TD*%
%ADD11C,0.200000*%
%ADD12C,0.300000*%
G04 APERTURE END LIST*
D10*
X9779000Y-8039100D02*
X9779000Y-8013700D01*
X7829550Y-8039100D02*
X9779000Y-8039100D01*
X7829550Y-8039100D02*
X7829550Y-5943600D01*
X9779000Y-5943600D02*
X9779000Y-8013700D01*
X7829550Y-5943600D02*
X9779000Y-5943600D01*
D11*
X7888250Y-6592850D02*
X7923250Y-6627850D01*
X7923250Y-6592850D02*
X7888250Y-6627850D01*
X7951750Y-6910350D02*
X7986750Y-6945350D01*
X7986750Y-6910350D02*
X7951750Y-6945350D01*
X7951750Y-7164350D02*
X7986750Y-7199350D01*
X7986750Y-7164350D02*
X7951750Y-7199350D01*
X7951750Y-7418350D02*
X7986750Y-7453350D01*
X7986750Y-7418350D02*
X7951750Y-7453350D01*
X8002550Y-6688100D02*
X8037550Y-6723100D01*
X8037550Y-6688100D02*
X8002550Y-6723100D01*
X8231150Y-6738900D02*
X8266150Y-6773900D01*
X8266150Y-6738900D02*
X8231150Y-6773900D01*
X8320050Y-6973850D02*
X8355050Y-7008850D01*
X8355050Y-6973850D02*
X8320050Y-7008850D01*
X8370850Y-6656350D02*
X8405850Y-6691350D01*
X8405850Y-6656350D02*
X8370850Y-6691350D01*
X8370850Y-7100850D02*
X8405850Y-7135850D01*
X8405850Y-7100850D02*
X8370850Y-7135850D01*
X8370850Y-7291350D02*
X8405850Y-7326350D01*
X8405850Y-7291350D02*
X8370850Y-7326350D01*
X8434350Y-7037350D02*
X8469350Y-7072350D01*
X8469350Y-7037350D02*
X8434350Y-7072350D01*
X8523250Y-6910350D02*
X8558250Y-6945350D01*
X8558250Y-6910350D02*
X8523250Y-6945350D01*
X8535950Y-6796050D02*
X8570950Y-6831050D01*
X8570950Y-6796050D02*
X8535950Y-6831050D01*
X8535950Y-7183400D02*
X8570950Y-7218400D01*
X8570950Y-7183400D02*
X8535950Y-7218400D01*
X8567700Y-6738900D02*
X8602700Y-6773900D01*
X8602700Y-6738900D02*
X8567700Y-6773900D01*
X8593100Y-7291350D02*
X8628100Y-7326350D01*
X8628100Y-7291350D02*
X8593100Y-7326350D01*
X8605800Y-7627900D02*
X8640800Y-7662900D01*
X8640800Y-7627900D02*
X8605800Y-7662900D01*
X8631200Y-6192800D02*
X8666200Y-6227800D01*
X8666200Y-6192800D02*
X8631200Y-6227800D01*
X8967750Y-6973850D02*
X9002750Y-7008850D01*
X9002750Y-6973850D02*
X8967750Y-7008850D01*
X9012200Y-6624600D02*
X9047200Y-6659600D01*
X9047200Y-6624600D02*
X9012200Y-6659600D01*
X9155075Y-6767475D02*
X9190075Y-6802475D01*
X9190075Y-6767475D02*
X9155075Y-6802475D01*
X9221750Y-7608850D02*
X9256750Y-7643850D01*
X9256750Y-7608850D02*
X9221750Y-7643850D01*
X9399550Y-7862850D02*
X9434550Y-7897850D01*
X9434550Y-7862850D02*
X9399550Y-7897850D01*
X9513850Y-6313450D02*
X9548850Y-6348450D01*
X9548850Y-6313450D02*
X9513850Y-6348450D01*
X9513850Y-7196100D02*
X9548850Y-7231100D01*
X9548850Y-7196100D02*
X9513850Y-7231100D01*
X8168000Y-6096000D02*
G75*
G03X8168000Y-6096000I-40000J0D01*
G01*
X8168000Y-6350000D02*
G75*
G03X8168000Y-6350000I-40000J0D01*
G01*
X8168000Y-6604000D02*
G75*
G03X8168000Y-6604000I-40000J0D01*
G01*
X8168000Y-6858000D02*
G75*
G03X8168000Y-6858000I-40000J0D01*
G01*
X8168000Y-7112000D02*
G75*
G03X8168000Y-7112000I-40000J0D01*
G01*
X8168000Y-7366000D02*
G75*
G03X8168000Y-7366000I-40000J0D01*
G01*
X8168000Y-7620000D02*
G75*
G03X8168000Y-7620000I-40000J0D01*
G01*
X8168000Y-7874000D02*
G75*
G03X8168000Y-7874000I-40000J0D01*
G01*
X8930000Y-6096000D02*
G75*
G03X8930000Y-6096000I-40000J0D01*
G01*
X8930000Y-6350000D02*
G75*
G03X8930000Y-6350000I-40000J0D01*
G01*
X8930000Y-6604000D02*
G75*
G03X8930000Y-6604000I-40000J0D01*
G01*
X8930000Y-6858000D02*
G75*
G03X8930000Y-6858000I-40000J0D01*
G01*
X8930000Y-7112000D02*
G75*
G03X8930000Y-7112000I-40000J0D01*
G01*
X8930000Y-7366000D02*
G75*
G03X8930000Y-7366000I-40000J0D01*
G01*
X8930000Y-7620000D02*
G75*
G03X8930000Y-7620000I-40000J0D01*
G01*
X8930000Y-7874000D02*
G75*
G03X8930000Y-7874000I-40000J0D01*
G01*
X9150350Y-6007900D02*
X9150350Y-6107900D01*
X9100350Y-6057900D02*
X9200350Y-6057900D01*
X9404350Y-6007900D02*
X9404350Y-6107900D01*
X9354350Y-6057900D02*
X9454350Y-6057900D01*
X9658350Y-6007900D02*
X9658350Y-6107900D01*
X9608350Y-6057900D02*
X9708350Y-6057900D01*
D12*
X8113478Y-8507314D02*
X8113478Y-8207314D01*
X8184907Y-8207314D01*
X8227764Y-8221600D01*
X8256336Y-8250171D01*
X8270621Y-8278743D01*
X8284907Y-8335886D01*
X8284907Y-8378743D01*
X8270621Y-8435886D01*
X8256336Y-8464457D01*
X8227764Y-8493029D01*
X8184907Y-8507314D01*
X8113478Y-8507314D01*
X8413478Y-8507314D02*
X8413478Y-8307314D01*
X8413478Y-8364457D02*
X8427764Y-8335886D01*
X8442050Y-8321600D01*
X8470621Y-8307314D01*
X8499193Y-8307314D01*
X8599193Y-8507314D02*
X8599193Y-8307314D01*
X8599193Y-8207314D02*
X8584907Y-8221600D01*
X8599193Y-8235886D01*
X8613478Y-8221600D01*
X8599193Y-8207314D01*
X8599193Y-8235886D01*
X8784907Y-8507314D02*
X8756336Y-8493029D01*
X8742050Y-8464457D01*
X8742050Y-8207314D01*
X8942050Y-8507314D02*
X8913478Y-8493029D01*
X8899193Y-8464457D01*
X8899193Y-8207314D01*
X9284907Y-8507314D02*
X9284907Y-8207314D01*
X9384907Y-8421600D01*
X9484907Y-8207314D01*
X9484907Y-8507314D01*
X9756336Y-8507314D02*
X9756336Y-8350171D01*
X9742050Y-8321600D01*
X9713478Y-8307314D01*
X9656336Y-8307314D01*
X9627764Y-8321600D01*
X9756336Y-8493029D02*
X9727764Y-8507314D01*
X9656336Y-8507314D01*
X9627764Y-8493029D01*
X9613478Y-8464457D01*
X9613478Y-8435886D01*
X9627764Y-8407314D01*
X9656336Y-8393029D01*
X9727764Y-8393029D01*
X9756336Y-8378743D01*
X9899193Y-8307314D02*
X9899193Y-8607314D01*
X9899193Y-8321600D02*
X9927764Y-8307314D01*
X9984907Y-8307314D01*
X10013478Y-8321600D01*
X10027764Y-8335886D01*
X10042050Y-8364457D01*
X10042050Y-8450172D01*
X10027764Y-8478743D01*
X10013478Y-8493029D01*
X9984907Y-8507314D01*
X9927764Y-8507314D01*
X9899193Y-8493029D01*
X10170621Y-8478743D02*
X10184907Y-8493029D01*
X10170621Y-8507314D01*
X10156336Y-8493029D01*
X10170621Y-8478743D01*
X10170621Y-8507314D01*
X10170621Y-8321600D02*
X10184907Y-8335886D01*
X10170621Y-8350171D01*
X10156336Y-8335886D01*
X10170621Y-8321600D01*
X10170621Y-8350171D01*
X7792050Y-8984100D02*
X7827050Y-9019100D01*
X7827050Y-8984100D02*
X7792050Y-9019100D01*
X8170621Y-8837314D02*
X8199193Y-8837314D01*
X8227764Y-8851600D01*
X8242050Y-8865886D01*
X8256336Y-8894457D01*
X8270621Y-8951600D01*
X8270621Y-9023029D01*
X8256336Y-9080172D01*
X8242050Y-9108743D01*
X8227764Y-9123029D01*
X8199193Y-9137314D01*
X8170621Y-9137314D01*
X8142050Y-9123029D01*
X8127764Y-9108743D01*
X8113478Y-9080172D01*
X8099193Y-9023029D01*
X8099193Y-8951600D01*
X8113478Y-8894457D01*
X8127764Y-8865886D01*
X8142050Y-8851600D01*
X8170621Y-8837314D01*
X8399193Y-9108743D02*
X8413478Y-9123029D01*
X8399193Y-9137314D01*
X8384907Y-9123029D01*
X8399193Y-9108743D01*
X8399193Y-9137314D01*
X8513478Y-8837314D02*
X8699193Y-8837314D01*
X8599193Y-8951600D01*
X8642050Y-8951600D01*
X8670621Y-8965886D01*
X8684907Y-8980172D01*
X8699193Y-9008743D01*
X8699193Y-9080172D01*
X8684907Y-9108743D01*
X8670621Y-9123029D01*
X8642050Y-9137314D01*
X8556336Y-9137314D01*
X8527764Y-9123029D01*
X8513478Y-9108743D01*
X8970621Y-8837314D02*
X8827764Y-8837314D01*
X8813478Y-8980172D01*
X8827764Y-8965886D01*
X8856336Y-8951600D01*
X8927764Y-8951600D01*
X8956336Y-8965886D01*
X8970621Y-8980172D01*
X8984907Y-9008743D01*
X8984907Y-9080172D01*
X8970621Y-9108743D01*
X8956336Y-9123029D01*
X8927764Y-9137314D01*
X8856336Y-9137314D01*
X8827764Y-9123029D01*
X8813478Y-9108743D01*
X9113478Y-9137314D02*
X9113478Y-8937314D01*
X9113478Y-8965886D02*
X9127764Y-8951600D01*
X9156336Y-8937314D01*
X9199193Y-8937314D01*
X9227764Y-8951600D01*
X9242050Y-8980172D01*
X9242050Y-9137314D01*
X9242050Y-8980172D02*
X9256336Y-8951600D01*
X9284907Y-8937314D01*
X9327764Y-8937314D01*
X9356336Y-8951600D01*
X9370621Y-8980172D01*
X9370621Y-9137314D01*
X9513478Y-9137314D02*
X9513478Y-8937314D01*
X9513478Y-8965886D02*
X9527764Y-8951600D01*
X9556336Y-8937314D01*
X9599193Y-8937314D01*
X9627764Y-8951600D01*
X9642050Y-8980172D01*
X9642050Y-9137314D01*
X9642050Y-8980172D02*
X9656336Y-8951600D01*
X9684907Y-8937314D01*
X9727764Y-8937314D01*
X9756336Y-8951600D01*
X9770621Y-8980172D01*
X9770621Y-9137314D01*
X10356336Y-8823029D02*
X10099193Y-9208743D01*
X10742050Y-8837314D02*
X10770621Y-8837314D01*
X10799193Y-8851600D01*
X10813478Y-8865886D01*
X10827764Y-8894457D01*
X10842050Y-8951600D01*
X10842050Y-9023029D01*
X10827764Y-9080172D01*
X10813478Y-9108743D01*
X10799193Y-9123029D01*
X10770621Y-9137314D01*
X10742050Y-9137314D01*
X10713478Y-9123029D01*
X10699193Y-9108743D01*
X10684907Y-9080172D01*
X10670621Y-9023029D01*
X10670621Y-8951600D01*
X10684907Y-8894457D01*
X10699193Y-8865886D01*
X10713478Y-8851600D01*
X10742050Y-8837314D01*
X10970621Y-9108743D02*
X10984907Y-9123029D01*
X10970621Y-9137314D01*
X10956336Y-9123029D01*
X10970621Y-9108743D01*
X10970621Y-9137314D01*
X11170621Y-8837314D02*
X11199193Y-8837314D01*
X11227764Y-8851600D01*
X11242050Y-8865886D01*
X11256336Y-8894457D01*
X11270621Y-8951600D01*
X11270621Y-9023029D01*
X11256336Y-9080172D01*
X11242050Y-9108743D01*
X11227764Y-9123029D01*
X11199193Y-9137314D01*
X11170621Y-9137314D01*
X11142050Y-9123029D01*
X11127764Y-9108743D01*
X11113478Y-9080172D01*
X11099193Y-9023029D01*
X11099193Y-8951600D01*
X11113478Y-8894457D01*
X11127764Y-8865886D01*
X11142050Y-8851600D01*
X11170621Y-8837314D01*
X11556336Y-9137314D02*
X11384907Y-9137314D01*
X11470621Y-9137314D02*
X11470621Y-8837314D01*
X11442050Y-8880172D01*
X11413478Y-8908743D01*
X11384907Y-8923029D01*
X11813478Y-8937314D02*
X11813478Y-9137314D01*
X11742050Y-8823029D02*
X11670621Y-9037314D01*
X11856336Y-9037314D01*
X11956336Y-8837314D02*
X11956336Y-8894457D01*
X12070621Y-8837314D02*
X12070621Y-8894457D01*
X12513478Y-9251600D02*
X12499193Y-9237314D01*
X12470621Y-9194457D01*
X12456336Y-9165886D01*
X12442050Y-9123029D01*
X12427764Y-9051600D01*
X12427764Y-8994457D01*
X12442050Y-8923029D01*
X12456336Y-8880172D01*
X12470621Y-8851600D01*
X12499193Y-8808743D01*
X12513478Y-8794457D01*
X12613478Y-8865886D02*
X12627764Y-8851600D01*
X12656336Y-8837314D01*
X12727764Y-8837314D01*
X12756336Y-8851600D01*
X12770621Y-8865886D01*
X12784907Y-8894457D01*
X12784907Y-8923029D01*
X12770621Y-8965886D01*
X12599193Y-9137314D01*
X12784907Y-9137314D01*
X13056336Y-8837314D02*
X12913478Y-8837314D01*
X12899193Y-8980172D01*
X12913478Y-8965886D01*
X12942050Y-8951600D01*
X13013478Y-8951600D01*
X13042050Y-8965886D01*
X13056336Y-8980172D01*
X13070621Y-9008743D01*
X13070621Y-9080172D01*
X13056336Y-9108743D01*
X13042050Y-9123029D01*
X13013478Y-9137314D01*
X12942050Y-9137314D01*
X12913478Y-9123029D01*
X12899193Y-9108743D01*
X13427764Y-9137314D02*
X13427764Y-8837314D01*
X13556336Y-9137314D02*
X13556336Y-8980172D01*
X13542050Y-8951600D01*
X13513478Y-8937314D01*
X13470621Y-8937314D01*
X13442050Y-8951600D01*
X13427764Y-8965886D01*
X13742050Y-9137314D02*
X13713478Y-9123029D01*
X13699193Y-9108743D01*
X13684907Y-9080172D01*
X13684907Y-8994457D01*
X13699193Y-8965886D01*
X13713478Y-8951600D01*
X13742050Y-8937314D01*
X13784907Y-8937314D01*
X13813478Y-8951600D01*
X13827764Y-8965886D01*
X13842050Y-8994457D01*
X13842050Y-9080172D01*
X13827764Y-9108743D01*
X13813478Y-9123029D01*
X13784907Y-9137314D01*
X13742050Y-9137314D01*
X14013478Y-9137314D02*
X13984907Y-9123029D01*
X13970621Y-9094457D01*
X13970621Y-8837314D01*
X14242050Y-9123029D02*
X14213478Y-9137314D01*
X14156336Y-9137314D01*
X14127764Y-9123029D01*
X14113478Y-9094457D01*
X14113478Y-8980172D01*
X14127764Y-8951600D01*
X14156336Y-8937314D01*
X14213478Y-8937314D01*
X14242050Y-8951600D01*
X14256336Y-8980172D01*
X14256336Y-9008743D01*
X14113478Y-9037314D01*
X14370621Y-9123029D02*
X14399193Y-9137314D01*
X14456336Y-9137314D01*
X14484907Y-9123029D01*
X14499193Y-9094457D01*
X14499193Y-9080172D01*
X14484907Y-9051600D01*
X14456336Y-9037314D01*
X14413478Y-9037314D01*
X14384907Y-9023029D01*
X14370621Y-8994457D01*
X14370621Y-8980172D01*
X14384907Y-8951600D01*
X14413478Y-8937314D01*
X14456336Y-8937314D01*
X14484907Y-8951600D01*
X14599193Y-9251600D02*
X14613478Y-9237314D01*
X14642050Y-9194457D01*
X14656336Y-9165886D01*
X14670621Y-9123029D01*
X14684907Y-9051600D01*
X14684907Y-8994457D01*
X14670621Y-8923029D01*
X14656336Y-8880172D01*
X14642050Y-8851600D01*
X14613478Y-8808743D01*
X14599193Y-8794457D01*
X7827050Y-9397600D02*
G75*
G03X7827050Y-9397600I-40000J0D01*
G01*
X8170621Y-9233314D02*
X8199193Y-9233314D01*
X8227764Y-9247600D01*
X8242050Y-9261886D01*
X8256336Y-9290457D01*
X8270621Y-9347600D01*
X8270621Y-9419029D01*
X8256336Y-9476172D01*
X8242050Y-9504743D01*
X8227764Y-9519029D01*
X8199193Y-9533314D01*
X8170621Y-9533314D01*
X8142050Y-9519029D01*
X8127764Y-9504743D01*
X8113478Y-9476172D01*
X8099193Y-9419029D01*
X8099193Y-9347600D01*
X8113478Y-9290457D01*
X8127764Y-9261886D01*
X8142050Y-9247600D01*
X8170621Y-9233314D01*
X8399193Y-9504743D02*
X8413478Y-9519029D01*
X8399193Y-9533314D01*
X8384907Y-9519029D01*
X8399193Y-9504743D01*
X8399193Y-9533314D01*
X8584907Y-9361886D02*
X8556336Y-9347600D01*
X8542050Y-9333314D01*
X8527764Y-9304743D01*
X8527764Y-9290457D01*
X8542050Y-9261886D01*
X8556336Y-9247600D01*
X8584907Y-9233314D01*
X8642050Y-9233314D01*
X8670621Y-9247600D01*
X8684907Y-9261886D01*
X8699193Y-9290457D01*
X8699193Y-9304743D01*
X8684907Y-9333314D01*
X8670621Y-9347600D01*
X8642050Y-9361886D01*
X8584907Y-9361886D01*
X8556336Y-9376172D01*
X8542050Y-9390457D01*
X8527764Y-9419029D01*
X8527764Y-9476172D01*
X8542050Y-9504743D01*
X8556336Y-9519029D01*
X8584907Y-9533314D01*
X8642050Y-9533314D01*
X8670621Y-9519029D01*
X8684907Y-9504743D01*
X8699193Y-9476172D01*
X8699193Y-9419029D01*
X8684907Y-9390457D01*
X8670621Y-9376172D01*
X8642050Y-9361886D01*
X8884907Y-9233314D02*
X8913478Y-9233314D01*
X8942050Y-9247600D01*
X8956336Y-9261886D01*
X8970621Y-9290457D01*
X8984907Y-9347600D01*
X8984907Y-9419029D01*
X8970621Y-9476172D01*
X8956336Y-9504743D01*
X8942050Y-9519029D01*
X8913478Y-9533314D01*
X8884907Y-9533314D01*
X8856336Y-9519029D01*
X8842050Y-9504743D01*
X8827764Y-9476172D01*
X8813478Y-9419029D01*
X8813478Y-9347600D01*
X8827764Y-9290457D01*
X8842050Y-9261886D01*
X8856336Y-9247600D01*
X8884907Y-9233314D01*
X9113478Y-9533314D02*
X9113478Y-9333314D01*
X9113478Y-9361886D02*
X9127764Y-9347600D01*
X9156336Y-9333314D01*
X9199193Y-9333314D01*
X9227764Y-9347600D01*
X9242050Y-9376172D01*
X9242050Y-9533314D01*
X9242050Y-9376172D02*
X9256336Y-9347600D01*
X9284907Y-9333314D01*
X9327764Y-9333314D01*
X9356336Y-9347600D01*
X9370621Y-9376172D01*
X9370621Y-9533314D01*
X9513478Y-9533314D02*
X9513478Y-9333314D01*
X9513478Y-9361886D02*
X9527764Y-9347600D01*
X9556336Y-9333314D01*
X9599193Y-9333314D01*
X9627764Y-9347600D01*
X9642050Y-9376172D01*
X9642050Y-9533314D01*
X9642050Y-9376172D02*
X9656336Y-9347600D01*
X9684907Y-9333314D01*
X9727764Y-9333314D01*
X9756336Y-9347600D01*
X9770621Y-9376172D01*
X9770621Y-9533314D01*
X10356336Y-9219029D02*
X10099193Y-9604743D01*
X10742050Y-9233314D02*
X10770621Y-9233314D01*
X10799193Y-9247600D01*
X10813478Y-9261886D01*
X10827764Y-9290457D01*
X10842050Y-9347600D01*
X10842050Y-9419029D01*
X10827764Y-9476172D01*
X10813478Y-9504743D01*
X10799193Y-9519029D01*
X10770621Y-9533314D01*
X10742050Y-9533314D01*
X10713478Y-9519029D01*
X10699193Y-9504743D01*
X10684907Y-9476172D01*
X10670621Y-9419029D01*
X10670621Y-9347600D01*
X10684907Y-9290457D01*
X10699193Y-9261886D01*
X10713478Y-9247600D01*
X10742050Y-9233314D01*
X10970621Y-9504743D02*
X10984907Y-9519029D01*
X10970621Y-9533314D01*
X10956336Y-9519029D01*
X10970621Y-9504743D01*
X10970621Y-9533314D01*
X11170621Y-9233314D02*
X11199193Y-9233314D01*
X11227764Y-9247600D01*
X11242050Y-9261886D01*
X11256336Y-9290457D01*
X11270621Y-9347600D01*
X11270621Y-9419029D01*
X11256336Y-9476172D01*
X11242050Y-9504743D01*
X11227764Y-9519029D01*
X11199193Y-9533314D01*
X11170621Y-9533314D01*
X11142050Y-9519029D01*
X11127764Y-9504743D01*
X11113478Y-9476172D01*
X11099193Y-9419029D01*
X11099193Y-9347600D01*
X11113478Y-9290457D01*
X11127764Y-9261886D01*
X11142050Y-9247600D01*
X11170621Y-9233314D01*
X11370621Y-9233314D02*
X11556336Y-9233314D01*
X11456336Y-9347600D01*
X11499193Y-9347600D01*
X11527764Y-9361886D01*
X11542050Y-9376172D01*
X11556336Y-9404743D01*
X11556336Y-9476172D01*
X11542050Y-9504743D01*
X11527764Y-9519029D01*
X11499193Y-9533314D01*
X11413478Y-9533314D01*
X11384907Y-9519029D01*
X11370621Y-9504743D01*
X11842050Y-9533314D02*
X11670621Y-9533314D01*
X11756336Y-9533314D02*
X11756336Y-9233314D01*
X11727764Y-9276172D01*
X11699193Y-9304743D01*
X11670621Y-9319029D01*
X11956336Y-9233314D02*
X11956336Y-9290457D01*
X12070621Y-9233314D02*
X12070621Y-9290457D01*
X12513478Y-9647600D02*
X12499193Y-9633314D01*
X12470621Y-9590457D01*
X12456336Y-9561886D01*
X12442050Y-9519029D01*
X12427764Y-9447600D01*
X12427764Y-9390457D01*
X12442050Y-9319029D01*
X12456336Y-9276172D01*
X12470621Y-9247600D01*
X12499193Y-9204743D01*
X12513478Y-9190457D01*
X12784907Y-9533314D02*
X12613478Y-9533314D01*
X12699193Y-9533314D02*
X12699193Y-9233314D01*
X12670621Y-9276172D01*
X12642050Y-9304743D01*
X12613478Y-9319029D01*
X13042050Y-9233314D02*
X12984907Y-9233314D01*
X12956336Y-9247600D01*
X12942050Y-9261886D01*
X12913478Y-9304743D01*
X12899193Y-9361886D01*
X12899193Y-9476172D01*
X12913478Y-9504743D01*
X12927764Y-9519029D01*
X12956336Y-9533314D01*
X13013478Y-9533314D01*
X13042050Y-9519029D01*
X13056336Y-9504743D01*
X13070621Y-9476172D01*
X13070621Y-9404743D01*
X13056336Y-9376172D01*
X13042050Y-9361886D01*
X13013478Y-9347600D01*
X12956336Y-9347600D01*
X12927764Y-9361886D01*
X12913478Y-9376172D01*
X12899193Y-9404743D01*
X13427764Y-9533314D02*
X13427764Y-9233314D01*
X13556336Y-9533314D02*
X13556336Y-9376172D01*
X13542050Y-9347600D01*
X13513478Y-9333314D01*
X13470621Y-9333314D01*
X13442050Y-9347600D01*
X13427764Y-9361886D01*
X13742050Y-9533314D02*
X13713478Y-9519029D01*
X13699193Y-9504743D01*
X13684907Y-9476172D01*
X13684907Y-9390457D01*
X13699193Y-9361886D01*
X13713478Y-9347600D01*
X13742050Y-9333314D01*
X13784907Y-9333314D01*
X13813478Y-9347600D01*
X13827764Y-9361886D01*
X13842050Y-9390457D01*
X13842050Y-9476172D01*
X13827764Y-9504743D01*
X13813478Y-9519029D01*
X13784907Y-9533314D01*
X13742050Y-9533314D01*
X14013478Y-9533314D02*
X13984907Y-9519029D01*
X13970621Y-9490457D01*
X13970621Y-9233314D01*
X14242050Y-9519029D02*
X14213478Y-9533314D01*
X14156336Y-9533314D01*
X14127764Y-9519029D01*
X14113478Y-9490457D01*
X14113478Y-9376172D01*
X14127764Y-9347600D01*
X14156336Y-9333314D01*
X14213478Y-9333314D01*
X14242050Y-9347600D01*
X14256336Y-9376172D01*
X14256336Y-9404743D01*
X14113478Y-9433314D01*
X14370621Y-9519029D02*
X14399193Y-9533314D01*
X14456336Y-9533314D01*
X14484907Y-9519029D01*
X14499193Y-9490457D01*
X14499193Y-9476172D01*
X14484907Y-9447600D01*
X14456336Y-9433314D01*
X14413478Y-9433314D01*
X14384907Y-9419029D01*
X14370621Y-9390457D01*
X14370621Y-9376172D01*
X14384907Y-9347600D01*
X14413478Y-9333314D01*
X14456336Y-9333314D01*
X14484907Y-9347600D01*
X14599193Y-9647600D02*
X14613478Y-9633314D01*
X14642050Y-9590457D01*
X14656336Y-9561886D01*
X14670621Y-9519029D01*
X14684907Y-9447600D01*
X14684907Y-9390457D01*
X14670621Y-9319029D01*
X14656336Y-9276172D01*
X14642050Y-9247600D01*
X14613478Y-9204743D01*
X14599193Y-9190457D01*
X7777050Y-9743600D02*
X7777050Y-9843600D01*
X7727050Y-9793600D02*
X7827050Y-9793600D01*
X8270621Y-9929314D02*
X8099193Y-9929314D01*
X8184907Y-9929314D02*
X8184907Y-9629314D01*
X8156336Y-9672172D01*
X8127764Y-9700743D01*
X8099193Y-9715029D01*
X8399193Y-9900743D02*
X8413478Y-9915029D01*
X8399193Y-9929314D01*
X8384907Y-9915029D01*
X8399193Y-9900743D01*
X8399193Y-9929314D01*
X8599193Y-9629314D02*
X8627764Y-9629314D01*
X8656336Y-9643600D01*
X8670621Y-9657886D01*
X8684907Y-9686457D01*
X8699193Y-9743600D01*
X8699193Y-9815029D01*
X8684907Y-9872172D01*
X8670621Y-9900743D01*
X8656336Y-9915029D01*
X8627764Y-9929314D01*
X8599193Y-9929314D01*
X8570621Y-9915029D01*
X8556336Y-9900743D01*
X8542050Y-9872172D01*
X8527764Y-9815029D01*
X8527764Y-9743600D01*
X8542050Y-9686457D01*
X8556336Y-9657886D01*
X8570621Y-9643600D01*
X8599193Y-9629314D01*
X8884907Y-9629314D02*
X8913478Y-9629314D01*
X8942050Y-9643600D01*
X8956336Y-9657886D01*
X8970621Y-9686457D01*
X8984907Y-9743600D01*
X8984907Y-9815029D01*
X8970621Y-9872172D01*
X8956336Y-9900743D01*
X8942050Y-9915029D01*
X8913478Y-9929314D01*
X8884907Y-9929314D01*
X8856336Y-9915029D01*
X8842050Y-9900743D01*
X8827764Y-9872172D01*
X8813478Y-9815029D01*
X8813478Y-9743600D01*
X8827764Y-9686457D01*
X8842050Y-9657886D01*
X8856336Y-9643600D01*
X8884907Y-9629314D01*
X9113478Y-9929314D02*
X9113478Y-9729314D01*
X9113478Y-9757886D02*
X9127764Y-9743600D01*
X9156336Y-9729314D01*
X9199193Y-9729314D01*
X9227764Y-9743600D01*
X9242050Y-9772172D01*
X9242050Y-9929314D01*
X9242050Y-9772172D02*
X9256336Y-9743600D01*
X9284907Y-9729314D01*
X9327764Y-9729314D01*
X9356336Y-9743600D01*
X9370621Y-9772172D01*
X9370621Y-9929314D01*
X9513478Y-9929314D02*
X9513478Y-9729314D01*
X9513478Y-9757886D02*
X9527764Y-9743600D01*
X9556336Y-9729314D01*
X9599193Y-9729314D01*
X9627764Y-9743600D01*
X9642050Y-9772172D01*
X9642050Y-9929314D01*
X9642050Y-9772172D02*
X9656336Y-9743600D01*
X9684907Y-9729314D01*
X9727764Y-9729314D01*
X9756336Y-9743600D01*
X9770621Y-9772172D01*
X9770621Y-9929314D01*
X10356336Y-9615029D02*
X10099193Y-10000743D01*
X10742050Y-9629314D02*
X10770621Y-9629314D01*
X10799193Y-9643600D01*
X10813478Y-9657886D01*
X10827764Y-9686457D01*
X10842050Y-9743600D01*
X10842050Y-9815029D01*
X10827764Y-9872172D01*
X10813478Y-9900743D01*
X10799193Y-9915029D01*
X10770621Y-9929314D01*
X10742050Y-9929314D01*
X10713478Y-9915029D01*
X10699193Y-9900743D01*
X10684907Y-9872172D01*
X10670621Y-9815029D01*
X10670621Y-9743600D01*
X10684907Y-9686457D01*
X10699193Y-9657886D01*
X10713478Y-9643600D01*
X10742050Y-9629314D01*
X10970621Y-9900743D02*
X10984907Y-9915029D01*
X10970621Y-9929314D01*
X10956336Y-9915029D01*
X10970621Y-9900743D01*
X10970621Y-9929314D01*
X11170621Y-9629314D02*
X11199193Y-9629314D01*
X11227764Y-9643600D01*
X11242050Y-9657886D01*
X11256336Y-9686457D01*
X11270621Y-9743600D01*
X11270621Y-9815029D01*
X11256336Y-9872172D01*
X11242050Y-9900743D01*
X11227764Y-9915029D01*
X11199193Y-9929314D01*
X11170621Y-9929314D01*
X11142050Y-9915029D01*
X11127764Y-9900743D01*
X11113478Y-9872172D01*
X11099193Y-9815029D01*
X11099193Y-9743600D01*
X11113478Y-9686457D01*
X11127764Y-9657886D01*
X11142050Y-9643600D01*
X11170621Y-9629314D01*
X11370621Y-9629314D02*
X11556336Y-9629314D01*
X11456336Y-9743600D01*
X11499193Y-9743600D01*
X11527764Y-9757886D01*
X11542050Y-9772172D01*
X11556336Y-9800743D01*
X11556336Y-9872172D01*
X11542050Y-9900743D01*
X11527764Y-9915029D01*
X11499193Y-9929314D01*
X11413478Y-9929314D01*
X11384907Y-9915029D01*
X11370621Y-9900743D01*
X11699193Y-9929314D02*
X11756336Y-9929314D01*
X11784907Y-9915029D01*
X11799193Y-9900743D01*
X11827764Y-9857886D01*
X11842050Y-9800743D01*
X11842050Y-9686457D01*
X11827764Y-9657886D01*
X11813478Y-9643600D01*
X11784907Y-9629314D01*
X11727764Y-9629314D01*
X11699193Y-9643600D01*
X11684907Y-9657886D01*
X11670621Y-9686457D01*
X11670621Y-9757886D01*
X11684907Y-9786457D01*
X11699193Y-9800743D01*
X11727764Y-9815029D01*
X11784907Y-9815029D01*
X11813478Y-9800743D01*
X11827764Y-9786457D01*
X11842050Y-9757886D01*
X11956336Y-9629314D02*
X11956336Y-9686457D01*
X12070621Y-9629314D02*
X12070621Y-9686457D01*
X12513478Y-10043600D02*
X12499193Y-10029314D01*
X12470621Y-9986457D01*
X12456336Y-9957886D01*
X12442050Y-9915029D01*
X12427764Y-9843600D01*
X12427764Y-9786457D01*
X12442050Y-9715029D01*
X12456336Y-9672172D01*
X12470621Y-9643600D01*
X12499193Y-9600743D01*
X12513478Y-9586457D01*
X12599193Y-9629314D02*
X12784907Y-9629314D01*
X12684907Y-9743600D01*
X12727764Y-9743600D01*
X12756336Y-9757886D01*
X12770621Y-9772172D01*
X12784907Y-9800743D01*
X12784907Y-9872172D01*
X12770621Y-9900743D01*
X12756336Y-9915029D01*
X12727764Y-9929314D01*
X12642050Y-9929314D01*
X12613478Y-9915029D01*
X12599193Y-9900743D01*
X13142050Y-9929314D02*
X13142050Y-9629314D01*
X13270621Y-9929314D02*
X13270621Y-9772172D01*
X13256336Y-9743600D01*
X13227764Y-9729314D01*
X13184907Y-9729314D01*
X13156336Y-9743600D01*
X13142050Y-9757886D01*
X13456336Y-9929314D02*
X13427764Y-9915029D01*
X13413478Y-9900743D01*
X13399193Y-9872172D01*
X13399193Y-9786457D01*
X13413478Y-9757886D01*
X13427764Y-9743600D01*
X13456336Y-9729314D01*
X13499193Y-9729314D01*
X13527764Y-9743600D01*
X13542050Y-9757886D01*
X13556336Y-9786457D01*
X13556336Y-9872172D01*
X13542050Y-9900743D01*
X13527764Y-9915029D01*
X13499193Y-9929314D01*
X13456336Y-9929314D01*
X13727764Y-9929314D02*
X13699193Y-9915029D01*
X13684907Y-9886457D01*
X13684907Y-9629314D01*
X13956336Y-9915029D02*
X13927764Y-9929314D01*
X13870621Y-9929314D01*
X13842050Y-9915029D01*
X13827764Y-9886457D01*
X13827764Y-9772172D01*
X13842050Y-9743600D01*
X13870621Y-9729314D01*
X13927764Y-9729314D01*
X13956336Y-9743600D01*
X13970621Y-9772172D01*
X13970621Y-9800743D01*
X13827764Y-9829314D01*
X14084907Y-9915029D02*
X14113478Y-9929314D01*
X14170621Y-9929314D01*
X14199193Y-9915029D01*
X14213478Y-9886457D01*
X14213478Y-9872172D01*
X14199193Y-9843600D01*
X14170621Y-9829314D01*
X14127764Y-9829314D01*
X14099193Y-9815029D01*
X14084907Y-9786457D01*
X14084907Y-9772172D01*
X14099193Y-9743600D01*
X14127764Y-9729314D01*
X14170621Y-9729314D01*
X14199193Y-9743600D01*
X14313478Y-10043600D02*
X14327764Y-10029314D01*
X14356336Y-9986457D01*
X14370621Y-9957886D01*
X14384907Y-9915029D01*
X14399193Y-9843600D01*
X14399193Y-9786457D01*
X14384907Y-9715029D01*
X14370621Y-9672172D01*
X14356336Y-9643600D01*
X14327764Y-9600743D01*
X14313478Y-9586457D01*
M02*
