G04 #@! TF.GenerationSoftware,KiCad,Pcbnew,(5.1.5)-3*
G04 #@! TF.CreationDate,2020-06-21T14:40:10-04:00*
G04 #@! TF.ProjectId,8701Duo,38373031-4475-46f2-9e6b-696361645f70,rev?*
G04 #@! TF.SameCoordinates,Original*
G04 #@! TF.FileFunction,Soldermask,Top*
G04 #@! TF.FilePolarity,Negative*
%FSLAX46Y46*%
G04 Gerber Fmt 4.6, Leading zero omitted, Abs format (unit mm)*
G04 Created by KiCad (PCBNEW (5.1.5)-3) date 2020-06-21 14:40:10*
%MOMM*%
%LPD*%
G04 APERTURE LIST*
%ADD10C,0.100000*%
G04 APERTURE END LIST*
D10*
G36*
X94897174Y-78628465D02*
G01*
X94934867Y-78639899D01*
X94969603Y-78658466D01*
X95000048Y-78683452D01*
X95025034Y-78713897D01*
X95043601Y-78748633D01*
X95055035Y-78786326D01*
X95059500Y-78831661D01*
X95059500Y-79918339D01*
X95055035Y-79963674D01*
X95043601Y-80001367D01*
X95025034Y-80036103D01*
X95000048Y-80066548D01*
X94969603Y-80091534D01*
X94934867Y-80110101D01*
X94897174Y-80121535D01*
X94851839Y-80126000D01*
X94015161Y-80126000D01*
X93969826Y-80121535D01*
X93932133Y-80110101D01*
X93897397Y-80091534D01*
X93866952Y-80066548D01*
X93841966Y-80036103D01*
X93823399Y-80001367D01*
X93811965Y-79963674D01*
X93807500Y-79918339D01*
X93807500Y-78831661D01*
X93811965Y-78786326D01*
X93823399Y-78748633D01*
X93841966Y-78713897D01*
X93866952Y-78683452D01*
X93897397Y-78658466D01*
X93932133Y-78639899D01*
X93969826Y-78628465D01*
X94015161Y-78624000D01*
X94851839Y-78624000D01*
X94897174Y-78628465D01*
G37*
G36*
X92847174Y-78628465D02*
G01*
X92884867Y-78639899D01*
X92919603Y-78658466D01*
X92950048Y-78683452D01*
X92975034Y-78713897D01*
X92993601Y-78748633D01*
X93005035Y-78786326D01*
X93009500Y-78831661D01*
X93009500Y-79918339D01*
X93005035Y-79963674D01*
X92993601Y-80001367D01*
X92975034Y-80036103D01*
X92950048Y-80066548D01*
X92919603Y-80091534D01*
X92884867Y-80110101D01*
X92847174Y-80121535D01*
X92801839Y-80126000D01*
X91965161Y-80126000D01*
X91919826Y-80121535D01*
X91882133Y-80110101D01*
X91847397Y-80091534D01*
X91816952Y-80066548D01*
X91791966Y-80036103D01*
X91773399Y-80001367D01*
X91761965Y-79963674D01*
X91757500Y-79918339D01*
X91757500Y-78831661D01*
X91761965Y-78786326D01*
X91773399Y-78748633D01*
X91791966Y-78713897D01*
X91816952Y-78683452D01*
X91847397Y-78658466D01*
X91882133Y-78639899D01*
X91919826Y-78628465D01*
X91965161Y-78624000D01*
X92801839Y-78624000D01*
X92847174Y-78628465D01*
G37*
G36*
X81528228Y-77921703D02*
G01*
X81683100Y-77985853D01*
X81822481Y-78078985D01*
X81941015Y-78197519D01*
X82034147Y-78336900D01*
X82098297Y-78491772D01*
X82131000Y-78656184D01*
X82131000Y-78823816D01*
X82098297Y-78988228D01*
X82034147Y-79143100D01*
X81941015Y-79282481D01*
X81822481Y-79401015D01*
X81683100Y-79494147D01*
X81528228Y-79558297D01*
X81363816Y-79591000D01*
X81196184Y-79591000D01*
X81031772Y-79558297D01*
X80876900Y-79494147D01*
X80737519Y-79401015D01*
X80618985Y-79282481D01*
X80525853Y-79143100D01*
X80461703Y-78988228D01*
X80429000Y-78823816D01*
X80429000Y-78656184D01*
X80461703Y-78491772D01*
X80525853Y-78336900D01*
X80618985Y-78197519D01*
X80737519Y-78078985D01*
X80876900Y-77985853D01*
X81031772Y-77921703D01*
X81196184Y-77889000D01*
X81363816Y-77889000D01*
X81528228Y-77921703D01*
G37*
G36*
X89148228Y-77921703D02*
G01*
X89303100Y-77985853D01*
X89442481Y-78078985D01*
X89561015Y-78197519D01*
X89654147Y-78336900D01*
X89718297Y-78491772D01*
X89751000Y-78656184D01*
X89751000Y-78823816D01*
X89718297Y-78988228D01*
X89654147Y-79143100D01*
X89561015Y-79282481D01*
X89442481Y-79401015D01*
X89303100Y-79494147D01*
X89148228Y-79558297D01*
X88983816Y-79591000D01*
X88816184Y-79591000D01*
X88651772Y-79558297D01*
X88496900Y-79494147D01*
X88357519Y-79401015D01*
X88238985Y-79282481D01*
X88145853Y-79143100D01*
X88081703Y-78988228D01*
X88049000Y-78823816D01*
X88049000Y-78656184D01*
X88081703Y-78491772D01*
X88145853Y-78336900D01*
X88238985Y-78197519D01*
X88357519Y-78078985D01*
X88496900Y-77985853D01*
X88651772Y-77921703D01*
X88816184Y-77889000D01*
X88983816Y-77889000D01*
X89148228Y-77921703D01*
G37*
G36*
X92867500Y-77786000D02*
G01*
X90765500Y-77786000D01*
X90765500Y-75884000D01*
X92867500Y-75884000D01*
X92867500Y-77786000D01*
G37*
G36*
X97067500Y-77786000D02*
G01*
X94965500Y-77786000D01*
X94965500Y-75884000D01*
X97067500Y-75884000D01*
X97067500Y-77786000D01*
G37*
G36*
X86642174Y-75770965D02*
G01*
X86679867Y-75782399D01*
X86714603Y-75800966D01*
X86745048Y-75825952D01*
X86770034Y-75856397D01*
X86788601Y-75891133D01*
X86800035Y-75928826D01*
X86804500Y-75974161D01*
X86804500Y-77060839D01*
X86800035Y-77106174D01*
X86788601Y-77143867D01*
X86770034Y-77178603D01*
X86745048Y-77209048D01*
X86714603Y-77234034D01*
X86679867Y-77252601D01*
X86642174Y-77264035D01*
X86596839Y-77268500D01*
X85760161Y-77268500D01*
X85714826Y-77264035D01*
X85677133Y-77252601D01*
X85642397Y-77234034D01*
X85611952Y-77209048D01*
X85586966Y-77178603D01*
X85568399Y-77143867D01*
X85556965Y-77106174D01*
X85552500Y-77060839D01*
X85552500Y-75974161D01*
X85556965Y-75928826D01*
X85568399Y-75891133D01*
X85586966Y-75856397D01*
X85611952Y-75825952D01*
X85642397Y-75800966D01*
X85677133Y-75782399D01*
X85714826Y-75770965D01*
X85760161Y-75766500D01*
X86596839Y-75766500D01*
X86642174Y-75770965D01*
G37*
G36*
X84592174Y-75770965D02*
G01*
X84629867Y-75782399D01*
X84664603Y-75800966D01*
X84695048Y-75825952D01*
X84720034Y-75856397D01*
X84738601Y-75891133D01*
X84750035Y-75928826D01*
X84754500Y-75974161D01*
X84754500Y-77060839D01*
X84750035Y-77106174D01*
X84738601Y-77143867D01*
X84720034Y-77178603D01*
X84695048Y-77209048D01*
X84664603Y-77234034D01*
X84629867Y-77252601D01*
X84592174Y-77264035D01*
X84546839Y-77268500D01*
X83710161Y-77268500D01*
X83664826Y-77264035D01*
X83627133Y-77252601D01*
X83592397Y-77234034D01*
X83561952Y-77209048D01*
X83536966Y-77178603D01*
X83518399Y-77143867D01*
X83506965Y-77106174D01*
X83502500Y-77060839D01*
X83502500Y-75974161D01*
X83506965Y-75928826D01*
X83518399Y-75891133D01*
X83536966Y-75856397D01*
X83561952Y-75825952D01*
X83592397Y-75800966D01*
X83627133Y-75782399D01*
X83664826Y-75770965D01*
X83710161Y-75766500D01*
X84546839Y-75766500D01*
X84592174Y-75770965D01*
G37*
G36*
X89148228Y-75381703D02*
G01*
X89303100Y-75445853D01*
X89442481Y-75538985D01*
X89561015Y-75657519D01*
X89654147Y-75796900D01*
X89718297Y-75951772D01*
X89751000Y-76116184D01*
X89751000Y-76283816D01*
X89718297Y-76448228D01*
X89654147Y-76603100D01*
X89561015Y-76742481D01*
X89442481Y-76861015D01*
X89303100Y-76954147D01*
X89148228Y-77018297D01*
X88983816Y-77051000D01*
X88816184Y-77051000D01*
X88651772Y-77018297D01*
X88496900Y-76954147D01*
X88357519Y-76861015D01*
X88238985Y-76742481D01*
X88145853Y-76603100D01*
X88081703Y-76448228D01*
X88049000Y-76283816D01*
X88049000Y-76116184D01*
X88081703Y-75951772D01*
X88145853Y-75796900D01*
X88238985Y-75657519D01*
X88357519Y-75538985D01*
X88496900Y-75445853D01*
X88651772Y-75381703D01*
X88816184Y-75349000D01*
X88983816Y-75349000D01*
X89148228Y-75381703D01*
G37*
G36*
X81528228Y-75381703D02*
G01*
X81683100Y-75445853D01*
X81822481Y-75538985D01*
X81941015Y-75657519D01*
X82034147Y-75796900D01*
X82098297Y-75951772D01*
X82131000Y-76116184D01*
X82131000Y-76283816D01*
X82098297Y-76448228D01*
X82034147Y-76603100D01*
X81941015Y-76742481D01*
X81822481Y-76861015D01*
X81683100Y-76954147D01*
X81528228Y-77018297D01*
X81363816Y-77051000D01*
X81196184Y-77051000D01*
X81031772Y-77018297D01*
X80876900Y-76954147D01*
X80737519Y-76861015D01*
X80618985Y-76742481D01*
X80525853Y-76603100D01*
X80461703Y-76448228D01*
X80429000Y-76283816D01*
X80429000Y-76116184D01*
X80461703Y-75951772D01*
X80525853Y-75796900D01*
X80618985Y-75657519D01*
X80737519Y-75538985D01*
X80876900Y-75445853D01*
X81031772Y-75381703D01*
X81196184Y-75349000D01*
X81363816Y-75349000D01*
X81528228Y-75381703D01*
G37*
G36*
X79839000Y-74609500D02*
G01*
X78537000Y-74609500D01*
X78537000Y-65852500D01*
X79839000Y-65852500D01*
X79839000Y-74609500D01*
G37*
G36*
X85039000Y-74609500D02*
G01*
X83737000Y-74609500D01*
X83737000Y-65852500D01*
X85039000Y-65852500D01*
X85039000Y-74609500D01*
G37*
G36*
X81528228Y-72841703D02*
G01*
X81683100Y-72905853D01*
X81822481Y-72998985D01*
X81941015Y-73117519D01*
X82034147Y-73256900D01*
X82098297Y-73411772D01*
X82131000Y-73576184D01*
X82131000Y-73743816D01*
X82098297Y-73908228D01*
X82034147Y-74063100D01*
X81941015Y-74202481D01*
X81822481Y-74321015D01*
X81683100Y-74414147D01*
X81528228Y-74478297D01*
X81363816Y-74511000D01*
X81196184Y-74511000D01*
X81031772Y-74478297D01*
X80876900Y-74414147D01*
X80737519Y-74321015D01*
X80618985Y-74202481D01*
X80525853Y-74063100D01*
X80461703Y-73908228D01*
X80429000Y-73743816D01*
X80429000Y-73576184D01*
X80461703Y-73411772D01*
X80525853Y-73256900D01*
X80618985Y-73117519D01*
X80737519Y-72998985D01*
X80876900Y-72905853D01*
X81031772Y-72841703D01*
X81196184Y-72809000D01*
X81363816Y-72809000D01*
X81528228Y-72841703D01*
G37*
G36*
X89148228Y-72841703D02*
G01*
X89303100Y-72905853D01*
X89442481Y-72998985D01*
X89561015Y-73117519D01*
X89654147Y-73256900D01*
X89718297Y-73411772D01*
X89751000Y-73576184D01*
X89751000Y-73743816D01*
X89718297Y-73908228D01*
X89654147Y-74063100D01*
X89561015Y-74202481D01*
X89442481Y-74321015D01*
X89303100Y-74414147D01*
X89148228Y-74478297D01*
X88983816Y-74511000D01*
X88816184Y-74511000D01*
X88651772Y-74478297D01*
X88496900Y-74414147D01*
X88357519Y-74321015D01*
X88238985Y-74202481D01*
X88145853Y-74063100D01*
X88081703Y-73908228D01*
X88049000Y-73743816D01*
X88049000Y-73576184D01*
X88081703Y-73411772D01*
X88145853Y-73256900D01*
X88238985Y-73117519D01*
X88357519Y-72998985D01*
X88496900Y-72905853D01*
X88651772Y-72841703D01*
X88816184Y-72809000D01*
X88983816Y-72809000D01*
X89148228Y-72841703D01*
G37*
G36*
X87139174Y-72412465D02*
G01*
X87176867Y-72423899D01*
X87211603Y-72442466D01*
X87242048Y-72467452D01*
X87267034Y-72497897D01*
X87285601Y-72532633D01*
X87297035Y-72570326D01*
X87301500Y-72615661D01*
X87301500Y-73452339D01*
X87297035Y-73497674D01*
X87285601Y-73535367D01*
X87267034Y-73570103D01*
X87242048Y-73600548D01*
X87211603Y-73625534D01*
X87176867Y-73644101D01*
X87139174Y-73655535D01*
X87093839Y-73660000D01*
X86007161Y-73660000D01*
X85961826Y-73655535D01*
X85924133Y-73644101D01*
X85889397Y-73625534D01*
X85858952Y-73600548D01*
X85833966Y-73570103D01*
X85815399Y-73535367D01*
X85803965Y-73497674D01*
X85799500Y-73452339D01*
X85799500Y-72615661D01*
X85803965Y-72570326D01*
X85815399Y-72532633D01*
X85833966Y-72497897D01*
X85858952Y-72467452D01*
X85889397Y-72442466D01*
X85924133Y-72423899D01*
X85961826Y-72412465D01*
X86007161Y-72408000D01*
X87093839Y-72408000D01*
X87139174Y-72412465D01*
G37*
G36*
X97067500Y-72706000D02*
G01*
X94965500Y-72706000D01*
X94965500Y-70804000D01*
X97067500Y-70804000D01*
X97067500Y-72706000D01*
G37*
G36*
X92867500Y-72706000D02*
G01*
X90765500Y-72706000D01*
X90765500Y-70804000D01*
X92867500Y-70804000D01*
X92867500Y-72706000D01*
G37*
G36*
X81528228Y-70301703D02*
G01*
X81683100Y-70365853D01*
X81822481Y-70458985D01*
X81941015Y-70577519D01*
X82034147Y-70716900D01*
X82098297Y-70871772D01*
X82131000Y-71036184D01*
X82131000Y-71203816D01*
X82098297Y-71368228D01*
X82034147Y-71523100D01*
X81941015Y-71662481D01*
X81822481Y-71781015D01*
X81683100Y-71874147D01*
X81528228Y-71938297D01*
X81363816Y-71971000D01*
X81196184Y-71971000D01*
X81031772Y-71938297D01*
X80876900Y-71874147D01*
X80737519Y-71781015D01*
X80618985Y-71662481D01*
X80525853Y-71523100D01*
X80461703Y-71368228D01*
X80429000Y-71203816D01*
X80429000Y-71036184D01*
X80461703Y-70871772D01*
X80525853Y-70716900D01*
X80618985Y-70577519D01*
X80737519Y-70458985D01*
X80876900Y-70365853D01*
X81031772Y-70301703D01*
X81196184Y-70269000D01*
X81363816Y-70269000D01*
X81528228Y-70301703D01*
G37*
G36*
X89148228Y-70301703D02*
G01*
X89303100Y-70365853D01*
X89442481Y-70458985D01*
X89561015Y-70577519D01*
X89654147Y-70716900D01*
X89718297Y-70871772D01*
X89751000Y-71036184D01*
X89751000Y-71203816D01*
X89718297Y-71368228D01*
X89654147Y-71523100D01*
X89561015Y-71662481D01*
X89442481Y-71781015D01*
X89303100Y-71874147D01*
X89148228Y-71938297D01*
X88983816Y-71971000D01*
X88816184Y-71971000D01*
X88651772Y-71938297D01*
X88496900Y-71874147D01*
X88357519Y-71781015D01*
X88238985Y-71662481D01*
X88145853Y-71523100D01*
X88081703Y-71368228D01*
X88049000Y-71203816D01*
X88049000Y-71036184D01*
X88081703Y-70871772D01*
X88145853Y-70716900D01*
X88238985Y-70577519D01*
X88357519Y-70458985D01*
X88496900Y-70365853D01*
X88651772Y-70301703D01*
X88816184Y-70269000D01*
X88983816Y-70269000D01*
X89148228Y-70301703D01*
G37*
G36*
X87139174Y-70362465D02*
G01*
X87176867Y-70373899D01*
X87211603Y-70392466D01*
X87242048Y-70417452D01*
X87267034Y-70447897D01*
X87285601Y-70482633D01*
X87297035Y-70520326D01*
X87301500Y-70565661D01*
X87301500Y-71402339D01*
X87297035Y-71447674D01*
X87285601Y-71485367D01*
X87267034Y-71520103D01*
X87242048Y-71550548D01*
X87211603Y-71575534D01*
X87176867Y-71594101D01*
X87139174Y-71605535D01*
X87093839Y-71610000D01*
X86007161Y-71610000D01*
X85961826Y-71605535D01*
X85924133Y-71594101D01*
X85889397Y-71575534D01*
X85858952Y-71550548D01*
X85833966Y-71520103D01*
X85815399Y-71485367D01*
X85803965Y-71447674D01*
X85799500Y-71402339D01*
X85799500Y-70565661D01*
X85803965Y-70520326D01*
X85815399Y-70482633D01*
X85833966Y-70447897D01*
X85858952Y-70417452D01*
X85889397Y-70392466D01*
X85924133Y-70373899D01*
X85961826Y-70362465D01*
X86007161Y-70358000D01*
X87093839Y-70358000D01*
X87139174Y-70362465D01*
G37*
G36*
X92867500Y-69658000D02*
G01*
X90765500Y-69658000D01*
X90765500Y-67756000D01*
X92867500Y-67756000D01*
X92867500Y-69658000D01*
G37*
G36*
X97067500Y-69658000D02*
G01*
X94965500Y-69658000D01*
X94965500Y-67756000D01*
X97067500Y-67756000D01*
X97067500Y-69658000D01*
G37*
G36*
X89148228Y-67761703D02*
G01*
X89303100Y-67825853D01*
X89442481Y-67918985D01*
X89561015Y-68037519D01*
X89654147Y-68176900D01*
X89718297Y-68331772D01*
X89751000Y-68496184D01*
X89751000Y-68663816D01*
X89718297Y-68828228D01*
X89654147Y-68983100D01*
X89561015Y-69122481D01*
X89442481Y-69241015D01*
X89303100Y-69334147D01*
X89148228Y-69398297D01*
X88983816Y-69431000D01*
X88816184Y-69431000D01*
X88651772Y-69398297D01*
X88496900Y-69334147D01*
X88357519Y-69241015D01*
X88238985Y-69122481D01*
X88145853Y-68983100D01*
X88081703Y-68828228D01*
X88049000Y-68663816D01*
X88049000Y-68496184D01*
X88081703Y-68331772D01*
X88145853Y-68176900D01*
X88238985Y-68037519D01*
X88357519Y-67918985D01*
X88496900Y-67825853D01*
X88651772Y-67761703D01*
X88816184Y-67729000D01*
X88983816Y-67729000D01*
X89148228Y-67761703D01*
G37*
G36*
X81528228Y-67761703D02*
G01*
X81683100Y-67825853D01*
X81822481Y-67918985D01*
X81941015Y-68037519D01*
X82034147Y-68176900D01*
X82098297Y-68331772D01*
X82131000Y-68496184D01*
X82131000Y-68663816D01*
X82098297Y-68828228D01*
X82034147Y-68983100D01*
X81941015Y-69122481D01*
X81822481Y-69241015D01*
X81683100Y-69334147D01*
X81528228Y-69398297D01*
X81363816Y-69431000D01*
X81196184Y-69431000D01*
X81031772Y-69398297D01*
X80876900Y-69334147D01*
X80737519Y-69241015D01*
X80618985Y-69122481D01*
X80525853Y-68983100D01*
X80461703Y-68828228D01*
X80429000Y-68663816D01*
X80429000Y-68496184D01*
X80461703Y-68331772D01*
X80525853Y-68176900D01*
X80618985Y-68037519D01*
X80737519Y-67918985D01*
X80876900Y-67825853D01*
X81031772Y-67761703D01*
X81196184Y-67729000D01*
X81363816Y-67729000D01*
X81528228Y-67761703D01*
G37*
G36*
X89148228Y-65221703D02*
G01*
X89303100Y-65285853D01*
X89442481Y-65378985D01*
X89561015Y-65497519D01*
X89654147Y-65636900D01*
X89718297Y-65791772D01*
X89751000Y-65956184D01*
X89751000Y-66123816D01*
X89718297Y-66288228D01*
X89654147Y-66443100D01*
X89561015Y-66582481D01*
X89442481Y-66701015D01*
X89303100Y-66794147D01*
X89148228Y-66858297D01*
X88983816Y-66891000D01*
X88816184Y-66891000D01*
X88651772Y-66858297D01*
X88496900Y-66794147D01*
X88357519Y-66701015D01*
X88238985Y-66582481D01*
X88145853Y-66443100D01*
X88081703Y-66288228D01*
X88049000Y-66123816D01*
X88049000Y-65956184D01*
X88081703Y-65791772D01*
X88145853Y-65636900D01*
X88238985Y-65497519D01*
X88357519Y-65378985D01*
X88496900Y-65285853D01*
X88651772Y-65221703D01*
X88816184Y-65189000D01*
X88983816Y-65189000D01*
X89148228Y-65221703D01*
G37*
G36*
X81528228Y-65221703D02*
G01*
X81683100Y-65285853D01*
X81822481Y-65378985D01*
X81941015Y-65497519D01*
X82034147Y-65636900D01*
X82098297Y-65791772D01*
X82131000Y-65956184D01*
X82131000Y-66123816D01*
X82098297Y-66288228D01*
X82034147Y-66443100D01*
X81941015Y-66582481D01*
X81822481Y-66701015D01*
X81683100Y-66794147D01*
X81528228Y-66858297D01*
X81363816Y-66891000D01*
X81196184Y-66891000D01*
X81031772Y-66858297D01*
X80876900Y-66794147D01*
X80737519Y-66701015D01*
X80618985Y-66582481D01*
X80525853Y-66443100D01*
X80461703Y-66288228D01*
X80429000Y-66123816D01*
X80429000Y-65956184D01*
X80461703Y-65791772D01*
X80525853Y-65636900D01*
X80618985Y-65497519D01*
X80737519Y-65378985D01*
X80876900Y-65285853D01*
X81031772Y-65221703D01*
X81196184Y-65189000D01*
X81363816Y-65189000D01*
X81528228Y-65221703D01*
G37*
G36*
X97067500Y-64578000D02*
G01*
X94965500Y-64578000D01*
X94965500Y-62676000D01*
X97067500Y-62676000D01*
X97067500Y-64578000D01*
G37*
G36*
X92867500Y-64578000D02*
G01*
X90765500Y-64578000D01*
X90765500Y-62676000D01*
X92867500Y-62676000D01*
X92867500Y-64578000D01*
G37*
G36*
X84507500Y-64445000D02*
G01*
X83345500Y-64445000D01*
X83345500Y-61793000D01*
X84507500Y-61793000D01*
X84507500Y-64445000D01*
G37*
G36*
X86707500Y-64445000D02*
G01*
X85545500Y-64445000D01*
X85545500Y-63693000D01*
X86707500Y-63693000D01*
X86707500Y-64445000D01*
G37*
G36*
X81528228Y-62681703D02*
G01*
X81683100Y-62745853D01*
X81822481Y-62838985D01*
X81941015Y-62957519D01*
X82034147Y-63096900D01*
X82098297Y-63251772D01*
X82131000Y-63416184D01*
X82131000Y-63583816D01*
X82098297Y-63748228D01*
X82034147Y-63903100D01*
X81941015Y-64042481D01*
X81822481Y-64161015D01*
X81683100Y-64254147D01*
X81528228Y-64318297D01*
X81363816Y-64351000D01*
X81196184Y-64351000D01*
X81031772Y-64318297D01*
X80876900Y-64254147D01*
X80737519Y-64161015D01*
X80618985Y-64042481D01*
X80525853Y-63903100D01*
X80461703Y-63748228D01*
X80429000Y-63583816D01*
X80429000Y-63416184D01*
X80461703Y-63251772D01*
X80525853Y-63096900D01*
X80618985Y-62957519D01*
X80737519Y-62838985D01*
X80876900Y-62745853D01*
X81031772Y-62681703D01*
X81196184Y-62649000D01*
X81363816Y-62649000D01*
X81528228Y-62681703D01*
G37*
G36*
X89148228Y-62681703D02*
G01*
X89303100Y-62745853D01*
X89442481Y-62838985D01*
X89561015Y-62957519D01*
X89654147Y-63096900D01*
X89718297Y-63251772D01*
X89751000Y-63416184D01*
X89751000Y-63583816D01*
X89718297Y-63748228D01*
X89654147Y-63903100D01*
X89561015Y-64042481D01*
X89442481Y-64161015D01*
X89303100Y-64254147D01*
X89148228Y-64318297D01*
X88983816Y-64351000D01*
X88816184Y-64351000D01*
X88651772Y-64318297D01*
X88496900Y-64254147D01*
X88357519Y-64161015D01*
X88238985Y-64042481D01*
X88145853Y-63903100D01*
X88081703Y-63748228D01*
X88049000Y-63583816D01*
X88049000Y-63416184D01*
X88081703Y-63251772D01*
X88145853Y-63096900D01*
X88238985Y-62957519D01*
X88357519Y-62838985D01*
X88496900Y-62745853D01*
X88651772Y-62681703D01*
X88816184Y-62649000D01*
X88983816Y-62649000D01*
X89148228Y-62681703D01*
G37*
G36*
X86707500Y-62545000D02*
G01*
X85545500Y-62545000D01*
X85545500Y-61793000D01*
X86707500Y-61793000D01*
X86707500Y-62545000D01*
G37*
G36*
X89148228Y-60141703D02*
G01*
X89303100Y-60205853D01*
X89442481Y-60298985D01*
X89561015Y-60417519D01*
X89654147Y-60556900D01*
X89718297Y-60711772D01*
X89751000Y-60876184D01*
X89751000Y-61043816D01*
X89718297Y-61208228D01*
X89654147Y-61363100D01*
X89561015Y-61502481D01*
X89442481Y-61621015D01*
X89303100Y-61714147D01*
X89148228Y-61778297D01*
X88983816Y-61811000D01*
X88816184Y-61811000D01*
X88651772Y-61778297D01*
X88496900Y-61714147D01*
X88357519Y-61621015D01*
X88238985Y-61502481D01*
X88145853Y-61363100D01*
X88081703Y-61208228D01*
X88049000Y-61043816D01*
X88049000Y-60876184D01*
X88081703Y-60711772D01*
X88145853Y-60556900D01*
X88238985Y-60417519D01*
X88357519Y-60298985D01*
X88496900Y-60205853D01*
X88651772Y-60141703D01*
X88816184Y-60109000D01*
X88983816Y-60109000D01*
X89148228Y-60141703D01*
G37*
G36*
X82131000Y-61811000D02*
G01*
X80429000Y-61811000D01*
X80429000Y-60109000D01*
X82131000Y-60109000D01*
X82131000Y-61811000D01*
G37*
G36*
X96697012Y-59682927D02*
G01*
X96846312Y-59712624D01*
X97010284Y-59780544D01*
X97157854Y-59879147D01*
X97283353Y-60004646D01*
X97381956Y-60152216D01*
X97449876Y-60316188D01*
X97484500Y-60490259D01*
X97484500Y-60667741D01*
X97449876Y-60841812D01*
X97381956Y-61005784D01*
X97283353Y-61153354D01*
X97157854Y-61278853D01*
X97010284Y-61377456D01*
X96846312Y-61445376D01*
X96697012Y-61475073D01*
X96672242Y-61480000D01*
X96494758Y-61480000D01*
X96469988Y-61475073D01*
X96320688Y-61445376D01*
X96156716Y-61377456D01*
X96009146Y-61278853D01*
X95883647Y-61153354D01*
X95785044Y-61005784D01*
X95717124Y-60841812D01*
X95682500Y-60667741D01*
X95682500Y-60490259D01*
X95717124Y-60316188D01*
X95785044Y-60152216D01*
X95883647Y-60004646D01*
X96009146Y-59879147D01*
X96156716Y-59780544D01*
X96320688Y-59712624D01*
X96469988Y-59682927D01*
X96494758Y-59678000D01*
X96672242Y-59678000D01*
X96697012Y-59682927D01*
G37*
G36*
X94157012Y-59682927D02*
G01*
X94306312Y-59712624D01*
X94470284Y-59780544D01*
X94617854Y-59879147D01*
X94743353Y-60004646D01*
X94841956Y-60152216D01*
X94909876Y-60316188D01*
X94944500Y-60490259D01*
X94944500Y-60667741D01*
X94909876Y-60841812D01*
X94841956Y-61005784D01*
X94743353Y-61153354D01*
X94617854Y-61278853D01*
X94470284Y-61377456D01*
X94306312Y-61445376D01*
X94157012Y-61475073D01*
X94132242Y-61480000D01*
X93954758Y-61480000D01*
X93929988Y-61475073D01*
X93780688Y-61445376D01*
X93616716Y-61377456D01*
X93469146Y-61278853D01*
X93343647Y-61153354D01*
X93245044Y-61005784D01*
X93177124Y-60841812D01*
X93142500Y-60667741D01*
X93142500Y-60490259D01*
X93177124Y-60316188D01*
X93245044Y-60152216D01*
X93343647Y-60004646D01*
X93469146Y-59879147D01*
X93616716Y-59780544D01*
X93780688Y-59712624D01*
X93929988Y-59682927D01*
X93954758Y-59678000D01*
X94132242Y-59678000D01*
X94157012Y-59682927D01*
G37*
G36*
X92404500Y-61480000D02*
G01*
X90602500Y-61480000D01*
X90602500Y-59678000D01*
X92404500Y-59678000D01*
X92404500Y-61480000D01*
G37*
M02*
