G04 #@! TF.GenerationSoftware,KiCad,Pcbnew,(5.1.5)-3*
G04 #@! TF.CreationDate,2020-06-23T19:18:02-04:00*
G04 #@! TF.ProjectId,8701Duo,38373031-4475-46f2-9e6b-696361645f70,rev?*
G04 #@! TF.SameCoordinates,Original*
G04 #@! TF.FileFunction,Soldermask,Bot*
G04 #@! TF.FilePolarity,Negative*
%FSLAX46Y46*%
G04 Gerber Fmt 4.6, Leading zero omitted, Abs format (unit mm)*
G04 Created by KiCad (PCBNEW (5.1.5)-3) date 2020-06-23 19:18:02*
%MOMM*%
%LPD*%
G04 APERTURE LIST*
%ADD10C,0.100000*%
G04 APERTURE END LIST*
D10*
G36*
X89148228Y-77921703D02*
G01*
X89303100Y-77985853D01*
X89442481Y-78078985D01*
X89561015Y-78197519D01*
X89654147Y-78336900D01*
X89718297Y-78491772D01*
X89751000Y-78656184D01*
X89751000Y-78823816D01*
X89718297Y-78988228D01*
X89654147Y-79143100D01*
X89561015Y-79282481D01*
X89442481Y-79401015D01*
X89303100Y-79494147D01*
X89148228Y-79558297D01*
X88983816Y-79591000D01*
X88816184Y-79591000D01*
X88651772Y-79558297D01*
X88496900Y-79494147D01*
X88357519Y-79401015D01*
X88238985Y-79282481D01*
X88145853Y-79143100D01*
X88081703Y-78988228D01*
X88049000Y-78823816D01*
X88049000Y-78656184D01*
X88081703Y-78491772D01*
X88145853Y-78336900D01*
X88238985Y-78197519D01*
X88357519Y-78078985D01*
X88496900Y-77985853D01*
X88651772Y-77921703D01*
X88816184Y-77889000D01*
X88983816Y-77889000D01*
X89148228Y-77921703D01*
G37*
G36*
X81528228Y-77921703D02*
G01*
X81683100Y-77985853D01*
X81822481Y-78078985D01*
X81941015Y-78197519D01*
X82034147Y-78336900D01*
X82098297Y-78491772D01*
X82131000Y-78656184D01*
X82131000Y-78823816D01*
X82098297Y-78988228D01*
X82034147Y-79143100D01*
X81941015Y-79282481D01*
X81822481Y-79401015D01*
X81683100Y-79494147D01*
X81528228Y-79558297D01*
X81363816Y-79591000D01*
X81196184Y-79591000D01*
X81031772Y-79558297D01*
X80876900Y-79494147D01*
X80737519Y-79401015D01*
X80618985Y-79282481D01*
X80525853Y-79143100D01*
X80461703Y-78988228D01*
X80429000Y-78823816D01*
X80429000Y-78656184D01*
X80461703Y-78491772D01*
X80525853Y-78336900D01*
X80618985Y-78197519D01*
X80737519Y-78078985D01*
X80876900Y-77985853D01*
X81031772Y-77921703D01*
X81196184Y-77889000D01*
X81363816Y-77889000D01*
X81528228Y-77921703D01*
G37*
G36*
X84592174Y-77739465D02*
G01*
X84629867Y-77750899D01*
X84664603Y-77769466D01*
X84695048Y-77794452D01*
X84720034Y-77824897D01*
X84738601Y-77859633D01*
X84750035Y-77897326D01*
X84754500Y-77942661D01*
X84754500Y-79029339D01*
X84750035Y-79074674D01*
X84738601Y-79112367D01*
X84720034Y-79147103D01*
X84695048Y-79177548D01*
X84664603Y-79202534D01*
X84629867Y-79221101D01*
X84592174Y-79232535D01*
X84546839Y-79237000D01*
X83710161Y-79237000D01*
X83664826Y-79232535D01*
X83627133Y-79221101D01*
X83592397Y-79202534D01*
X83561952Y-79177548D01*
X83536966Y-79147103D01*
X83518399Y-79112367D01*
X83506965Y-79074674D01*
X83502500Y-79029339D01*
X83502500Y-77942661D01*
X83506965Y-77897326D01*
X83518399Y-77859633D01*
X83536966Y-77824897D01*
X83561952Y-77794452D01*
X83592397Y-77769466D01*
X83627133Y-77750899D01*
X83664826Y-77739465D01*
X83710161Y-77735000D01*
X84546839Y-77735000D01*
X84592174Y-77739465D01*
G37*
G36*
X86642174Y-77739465D02*
G01*
X86679867Y-77750899D01*
X86714603Y-77769466D01*
X86745048Y-77794452D01*
X86770034Y-77824897D01*
X86788601Y-77859633D01*
X86800035Y-77897326D01*
X86804500Y-77942661D01*
X86804500Y-79029339D01*
X86800035Y-79074674D01*
X86788601Y-79112367D01*
X86770034Y-79147103D01*
X86745048Y-79177548D01*
X86714603Y-79202534D01*
X86679867Y-79221101D01*
X86642174Y-79232535D01*
X86596839Y-79237000D01*
X85760161Y-79237000D01*
X85714826Y-79232535D01*
X85677133Y-79221101D01*
X85642397Y-79202534D01*
X85611952Y-79177548D01*
X85586966Y-79147103D01*
X85568399Y-79112367D01*
X85556965Y-79074674D01*
X85552500Y-79029339D01*
X85552500Y-77942661D01*
X85556965Y-77897326D01*
X85568399Y-77859633D01*
X85586966Y-77824897D01*
X85611952Y-77794452D01*
X85642397Y-77769466D01*
X85677133Y-77750899D01*
X85714826Y-77739465D01*
X85760161Y-77735000D01*
X86596839Y-77735000D01*
X86642174Y-77739465D01*
G37*
G36*
X89148228Y-75381703D02*
G01*
X89303100Y-75445853D01*
X89442481Y-75538985D01*
X89561015Y-75657519D01*
X89654147Y-75796900D01*
X89718297Y-75951772D01*
X89751000Y-76116184D01*
X89751000Y-76283816D01*
X89718297Y-76448228D01*
X89654147Y-76603100D01*
X89561015Y-76742481D01*
X89442481Y-76861015D01*
X89303100Y-76954147D01*
X89148228Y-77018297D01*
X88983816Y-77051000D01*
X88816184Y-77051000D01*
X88651772Y-77018297D01*
X88496900Y-76954147D01*
X88357519Y-76861015D01*
X88238985Y-76742481D01*
X88145853Y-76603100D01*
X88081703Y-76448228D01*
X88049000Y-76283816D01*
X88049000Y-76116184D01*
X88081703Y-75951772D01*
X88145853Y-75796900D01*
X88238985Y-75657519D01*
X88357519Y-75538985D01*
X88496900Y-75445853D01*
X88651772Y-75381703D01*
X88816184Y-75349000D01*
X88983816Y-75349000D01*
X89148228Y-75381703D01*
G37*
G36*
X81528228Y-75381703D02*
G01*
X81683100Y-75445853D01*
X81822481Y-75538985D01*
X81941015Y-75657519D01*
X82034147Y-75796900D01*
X82098297Y-75951772D01*
X82131000Y-76116184D01*
X82131000Y-76283816D01*
X82098297Y-76448228D01*
X82034147Y-76603100D01*
X81941015Y-76742481D01*
X81822481Y-76861015D01*
X81683100Y-76954147D01*
X81528228Y-77018297D01*
X81363816Y-77051000D01*
X81196184Y-77051000D01*
X81031772Y-77018297D01*
X80876900Y-76954147D01*
X80737519Y-76861015D01*
X80618985Y-76742481D01*
X80525853Y-76603100D01*
X80461703Y-76448228D01*
X80429000Y-76283816D01*
X80429000Y-76116184D01*
X80461703Y-75951772D01*
X80525853Y-75796900D01*
X80618985Y-75657519D01*
X80737519Y-75538985D01*
X80876900Y-75445853D01*
X81031772Y-75381703D01*
X81196184Y-75349000D01*
X81363816Y-75349000D01*
X81528228Y-75381703D01*
G37*
G36*
X81528228Y-72841703D02*
G01*
X81683100Y-72905853D01*
X81822481Y-72998985D01*
X81941015Y-73117519D01*
X82034147Y-73256900D01*
X82098297Y-73411772D01*
X82131000Y-73576184D01*
X82131000Y-73743816D01*
X82098297Y-73908228D01*
X82034147Y-74063100D01*
X81941015Y-74202481D01*
X81822481Y-74321015D01*
X81683100Y-74414147D01*
X81528228Y-74478297D01*
X81363816Y-74511000D01*
X81196184Y-74511000D01*
X81031772Y-74478297D01*
X80876900Y-74414147D01*
X80737519Y-74321015D01*
X80618985Y-74202481D01*
X80525853Y-74063100D01*
X80461703Y-73908228D01*
X80429000Y-73743816D01*
X80429000Y-73576184D01*
X80461703Y-73411772D01*
X80525853Y-73256900D01*
X80618985Y-73117519D01*
X80737519Y-72998985D01*
X80876900Y-72905853D01*
X81031772Y-72841703D01*
X81196184Y-72809000D01*
X81363816Y-72809000D01*
X81528228Y-72841703D01*
G37*
G36*
X89148228Y-72841703D02*
G01*
X89303100Y-72905853D01*
X89442481Y-72998985D01*
X89561015Y-73117519D01*
X89654147Y-73256900D01*
X89718297Y-73411772D01*
X89751000Y-73576184D01*
X89751000Y-73743816D01*
X89718297Y-73908228D01*
X89654147Y-74063100D01*
X89561015Y-74202481D01*
X89442481Y-74321015D01*
X89303100Y-74414147D01*
X89148228Y-74478297D01*
X88983816Y-74511000D01*
X88816184Y-74511000D01*
X88651772Y-74478297D01*
X88496900Y-74414147D01*
X88357519Y-74321015D01*
X88238985Y-74202481D01*
X88145853Y-74063100D01*
X88081703Y-73908228D01*
X88049000Y-73743816D01*
X88049000Y-73576184D01*
X88081703Y-73411772D01*
X88145853Y-73256900D01*
X88238985Y-73117519D01*
X88357519Y-72998985D01*
X88496900Y-72905853D01*
X88651772Y-72841703D01*
X88816184Y-72809000D01*
X88983816Y-72809000D01*
X89148228Y-72841703D01*
G37*
G36*
X89148228Y-70301703D02*
G01*
X89303100Y-70365853D01*
X89442481Y-70458985D01*
X89561015Y-70577519D01*
X89654147Y-70716900D01*
X89718297Y-70871772D01*
X89751000Y-71036184D01*
X89751000Y-71203816D01*
X89718297Y-71368228D01*
X89654147Y-71523100D01*
X89561015Y-71662481D01*
X89442481Y-71781015D01*
X89303100Y-71874147D01*
X89148228Y-71938297D01*
X88983816Y-71971000D01*
X88816184Y-71971000D01*
X88651772Y-71938297D01*
X88496900Y-71874147D01*
X88357519Y-71781015D01*
X88238985Y-71662481D01*
X88145853Y-71523100D01*
X88081703Y-71368228D01*
X88049000Y-71203816D01*
X88049000Y-71036184D01*
X88081703Y-70871772D01*
X88145853Y-70716900D01*
X88238985Y-70577519D01*
X88357519Y-70458985D01*
X88496900Y-70365853D01*
X88651772Y-70301703D01*
X88816184Y-70269000D01*
X88983816Y-70269000D01*
X89148228Y-70301703D01*
G37*
G36*
X81528228Y-70301703D02*
G01*
X81683100Y-70365853D01*
X81822481Y-70458985D01*
X81941015Y-70577519D01*
X82034147Y-70716900D01*
X82098297Y-70871772D01*
X82131000Y-71036184D01*
X82131000Y-71203816D01*
X82098297Y-71368228D01*
X82034147Y-71523100D01*
X81941015Y-71662481D01*
X81822481Y-71781015D01*
X81683100Y-71874147D01*
X81528228Y-71938297D01*
X81363816Y-71971000D01*
X81196184Y-71971000D01*
X81031772Y-71938297D01*
X80876900Y-71874147D01*
X80737519Y-71781015D01*
X80618985Y-71662481D01*
X80525853Y-71523100D01*
X80461703Y-71368228D01*
X80429000Y-71203816D01*
X80429000Y-71036184D01*
X80461703Y-70871772D01*
X80525853Y-70716900D01*
X80618985Y-70577519D01*
X80737519Y-70458985D01*
X80876900Y-70365853D01*
X81031772Y-70301703D01*
X81196184Y-70269000D01*
X81363816Y-70269000D01*
X81528228Y-70301703D01*
G37*
G36*
X89148228Y-67761703D02*
G01*
X89303100Y-67825853D01*
X89442481Y-67918985D01*
X89561015Y-68037519D01*
X89654147Y-68176900D01*
X89718297Y-68331772D01*
X89751000Y-68496184D01*
X89751000Y-68663816D01*
X89718297Y-68828228D01*
X89654147Y-68983100D01*
X89561015Y-69122481D01*
X89442481Y-69241015D01*
X89303100Y-69334147D01*
X89148228Y-69398297D01*
X88983816Y-69431000D01*
X88816184Y-69431000D01*
X88651772Y-69398297D01*
X88496900Y-69334147D01*
X88357519Y-69241015D01*
X88238985Y-69122481D01*
X88145853Y-68983100D01*
X88081703Y-68828228D01*
X88049000Y-68663816D01*
X88049000Y-68496184D01*
X88081703Y-68331772D01*
X88145853Y-68176900D01*
X88238985Y-68037519D01*
X88357519Y-67918985D01*
X88496900Y-67825853D01*
X88651772Y-67761703D01*
X88816184Y-67729000D01*
X88983816Y-67729000D01*
X89148228Y-67761703D01*
G37*
G36*
X81528228Y-67761703D02*
G01*
X81683100Y-67825853D01*
X81822481Y-67918985D01*
X81941015Y-68037519D01*
X82034147Y-68176900D01*
X82098297Y-68331772D01*
X82131000Y-68496184D01*
X82131000Y-68663816D01*
X82098297Y-68828228D01*
X82034147Y-68983100D01*
X81941015Y-69122481D01*
X81822481Y-69241015D01*
X81683100Y-69334147D01*
X81528228Y-69398297D01*
X81363816Y-69431000D01*
X81196184Y-69431000D01*
X81031772Y-69398297D01*
X80876900Y-69334147D01*
X80737519Y-69241015D01*
X80618985Y-69122481D01*
X80525853Y-68983100D01*
X80461703Y-68828228D01*
X80429000Y-68663816D01*
X80429000Y-68496184D01*
X80461703Y-68331772D01*
X80525853Y-68176900D01*
X80618985Y-68037519D01*
X80737519Y-67918985D01*
X80876900Y-67825853D01*
X81031772Y-67761703D01*
X81196184Y-67729000D01*
X81363816Y-67729000D01*
X81528228Y-67761703D01*
G37*
G36*
X84211174Y-65547465D02*
G01*
X84248867Y-65558899D01*
X84283603Y-65577466D01*
X84314048Y-65602452D01*
X84339034Y-65632897D01*
X84357601Y-65667633D01*
X84369035Y-65705326D01*
X84373500Y-65750661D01*
X84373500Y-66837339D01*
X84369035Y-66882674D01*
X84357601Y-66920367D01*
X84339034Y-66955103D01*
X84314048Y-66985548D01*
X84283603Y-67010534D01*
X84248867Y-67029101D01*
X84211174Y-67040535D01*
X84165839Y-67045000D01*
X83329161Y-67045000D01*
X83283826Y-67040535D01*
X83246133Y-67029101D01*
X83211397Y-67010534D01*
X83180952Y-66985548D01*
X83155966Y-66955103D01*
X83137399Y-66920367D01*
X83125965Y-66882674D01*
X83121500Y-66837339D01*
X83121500Y-65750661D01*
X83125965Y-65705326D01*
X83137399Y-65667633D01*
X83155966Y-65632897D01*
X83180952Y-65602452D01*
X83211397Y-65577466D01*
X83246133Y-65558899D01*
X83283826Y-65547465D01*
X83329161Y-65543000D01*
X84165839Y-65543000D01*
X84211174Y-65547465D01*
G37*
G36*
X86261174Y-65547465D02*
G01*
X86298867Y-65558899D01*
X86333603Y-65577466D01*
X86364048Y-65602452D01*
X86389034Y-65632897D01*
X86407601Y-65667633D01*
X86419035Y-65705326D01*
X86423500Y-65750661D01*
X86423500Y-66837339D01*
X86419035Y-66882674D01*
X86407601Y-66920367D01*
X86389034Y-66955103D01*
X86364048Y-66985548D01*
X86333603Y-67010534D01*
X86298867Y-67029101D01*
X86261174Y-67040535D01*
X86215839Y-67045000D01*
X85379161Y-67045000D01*
X85333826Y-67040535D01*
X85296133Y-67029101D01*
X85261397Y-67010534D01*
X85230952Y-66985548D01*
X85205966Y-66955103D01*
X85187399Y-66920367D01*
X85175965Y-66882674D01*
X85171500Y-66837339D01*
X85171500Y-65750661D01*
X85175965Y-65705326D01*
X85187399Y-65667633D01*
X85205966Y-65632897D01*
X85230952Y-65602452D01*
X85261397Y-65577466D01*
X85296133Y-65558899D01*
X85333826Y-65547465D01*
X85379161Y-65543000D01*
X86215839Y-65543000D01*
X86261174Y-65547465D01*
G37*
G36*
X89148228Y-65221703D02*
G01*
X89303100Y-65285853D01*
X89442481Y-65378985D01*
X89561015Y-65497519D01*
X89654147Y-65636900D01*
X89718297Y-65791772D01*
X89751000Y-65956184D01*
X89751000Y-66123816D01*
X89718297Y-66288228D01*
X89654147Y-66443100D01*
X89561015Y-66582481D01*
X89442481Y-66701015D01*
X89303100Y-66794147D01*
X89148228Y-66858297D01*
X88983816Y-66891000D01*
X88816184Y-66891000D01*
X88651772Y-66858297D01*
X88496900Y-66794147D01*
X88357519Y-66701015D01*
X88238985Y-66582481D01*
X88145853Y-66443100D01*
X88081703Y-66288228D01*
X88049000Y-66123816D01*
X88049000Y-65956184D01*
X88081703Y-65791772D01*
X88145853Y-65636900D01*
X88238985Y-65497519D01*
X88357519Y-65378985D01*
X88496900Y-65285853D01*
X88651772Y-65221703D01*
X88816184Y-65189000D01*
X88983816Y-65189000D01*
X89148228Y-65221703D01*
G37*
G36*
X81528228Y-65221703D02*
G01*
X81683100Y-65285853D01*
X81822481Y-65378985D01*
X81941015Y-65497519D01*
X82034147Y-65636900D01*
X82098297Y-65791772D01*
X82131000Y-65956184D01*
X82131000Y-66123816D01*
X82098297Y-66288228D01*
X82034147Y-66443100D01*
X81941015Y-66582481D01*
X81822481Y-66701015D01*
X81683100Y-66794147D01*
X81528228Y-66858297D01*
X81363816Y-66891000D01*
X81196184Y-66891000D01*
X81031772Y-66858297D01*
X80876900Y-66794147D01*
X80737519Y-66701015D01*
X80618985Y-66582481D01*
X80525853Y-66443100D01*
X80461703Y-66288228D01*
X80429000Y-66123816D01*
X80429000Y-65956184D01*
X80461703Y-65791772D01*
X80525853Y-65636900D01*
X80618985Y-65497519D01*
X80737519Y-65378985D01*
X80876900Y-65285853D01*
X81031772Y-65221703D01*
X81196184Y-65189000D01*
X81363816Y-65189000D01*
X81528228Y-65221703D01*
G37*
G36*
X89148228Y-62681703D02*
G01*
X89303100Y-62745853D01*
X89442481Y-62838985D01*
X89561015Y-62957519D01*
X89654147Y-63096900D01*
X89718297Y-63251772D01*
X89751000Y-63416184D01*
X89751000Y-63583816D01*
X89718297Y-63748228D01*
X89654147Y-63903100D01*
X89561015Y-64042481D01*
X89442481Y-64161015D01*
X89303100Y-64254147D01*
X89148228Y-64318297D01*
X88983816Y-64351000D01*
X88816184Y-64351000D01*
X88651772Y-64318297D01*
X88496900Y-64254147D01*
X88357519Y-64161015D01*
X88238985Y-64042481D01*
X88145853Y-63903100D01*
X88081703Y-63748228D01*
X88049000Y-63583816D01*
X88049000Y-63416184D01*
X88081703Y-63251772D01*
X88145853Y-63096900D01*
X88238985Y-62957519D01*
X88357519Y-62838985D01*
X88496900Y-62745853D01*
X88651772Y-62681703D01*
X88816184Y-62649000D01*
X88983816Y-62649000D01*
X89148228Y-62681703D01*
G37*
G36*
X81528228Y-62681703D02*
G01*
X81683100Y-62745853D01*
X81822481Y-62838985D01*
X81941015Y-62957519D01*
X82034147Y-63096900D01*
X82098297Y-63251772D01*
X82131000Y-63416184D01*
X82131000Y-63583816D01*
X82098297Y-63748228D01*
X82034147Y-63903100D01*
X81941015Y-64042481D01*
X81822481Y-64161015D01*
X81683100Y-64254147D01*
X81528228Y-64318297D01*
X81363816Y-64351000D01*
X81196184Y-64351000D01*
X81031772Y-64318297D01*
X80876900Y-64254147D01*
X80737519Y-64161015D01*
X80618985Y-64042481D01*
X80525853Y-63903100D01*
X80461703Y-63748228D01*
X80429000Y-63583816D01*
X80429000Y-63416184D01*
X80461703Y-63251772D01*
X80525853Y-63096900D01*
X80618985Y-62957519D01*
X80737519Y-62838985D01*
X80876900Y-62745853D01*
X81031772Y-62681703D01*
X81196184Y-62649000D01*
X81363816Y-62649000D01*
X81528228Y-62681703D01*
G37*
G36*
X82131000Y-61811000D02*
G01*
X80429000Y-61811000D01*
X80429000Y-60109000D01*
X82131000Y-60109000D01*
X82131000Y-61811000D01*
G37*
G36*
X89148228Y-60141703D02*
G01*
X89303100Y-60205853D01*
X89442481Y-60298985D01*
X89561015Y-60417519D01*
X89654147Y-60556900D01*
X89718297Y-60711772D01*
X89751000Y-60876184D01*
X89751000Y-61043816D01*
X89718297Y-61208228D01*
X89654147Y-61363100D01*
X89561015Y-61502481D01*
X89442481Y-61621015D01*
X89303100Y-61714147D01*
X89148228Y-61778297D01*
X88983816Y-61811000D01*
X88816184Y-61811000D01*
X88651772Y-61778297D01*
X88496900Y-61714147D01*
X88357519Y-61621015D01*
X88238985Y-61502481D01*
X88145853Y-61363100D01*
X88081703Y-61208228D01*
X88049000Y-61043816D01*
X88049000Y-60876184D01*
X88081703Y-60711772D01*
X88145853Y-60556900D01*
X88238985Y-60417519D01*
X88357519Y-60298985D01*
X88496900Y-60205853D01*
X88651772Y-60141703D01*
X88816184Y-60109000D01*
X88983816Y-60109000D01*
X89148228Y-60141703D01*
G37*
G36*
X96697012Y-59682927D02*
G01*
X96846312Y-59712624D01*
X97010284Y-59780544D01*
X97157854Y-59879147D01*
X97283353Y-60004646D01*
X97381956Y-60152216D01*
X97449876Y-60316188D01*
X97484500Y-60490259D01*
X97484500Y-60667741D01*
X97449876Y-60841812D01*
X97381956Y-61005784D01*
X97283353Y-61153354D01*
X97157854Y-61278853D01*
X97010284Y-61377456D01*
X96846312Y-61445376D01*
X96697012Y-61475073D01*
X96672242Y-61480000D01*
X96494758Y-61480000D01*
X96469988Y-61475073D01*
X96320688Y-61445376D01*
X96156716Y-61377456D01*
X96009146Y-61278853D01*
X95883647Y-61153354D01*
X95785044Y-61005784D01*
X95717124Y-60841812D01*
X95682500Y-60667741D01*
X95682500Y-60490259D01*
X95717124Y-60316188D01*
X95785044Y-60152216D01*
X95883647Y-60004646D01*
X96009146Y-59879147D01*
X96156716Y-59780544D01*
X96320688Y-59712624D01*
X96469988Y-59682927D01*
X96494758Y-59678000D01*
X96672242Y-59678000D01*
X96697012Y-59682927D01*
G37*
G36*
X94157012Y-59682927D02*
G01*
X94306312Y-59712624D01*
X94470284Y-59780544D01*
X94617854Y-59879147D01*
X94743353Y-60004646D01*
X94841956Y-60152216D01*
X94909876Y-60316188D01*
X94944500Y-60490259D01*
X94944500Y-60667741D01*
X94909876Y-60841812D01*
X94841956Y-61005784D01*
X94743353Y-61153354D01*
X94617854Y-61278853D01*
X94470284Y-61377456D01*
X94306312Y-61445376D01*
X94157012Y-61475073D01*
X94132242Y-61480000D01*
X93954758Y-61480000D01*
X93929988Y-61475073D01*
X93780688Y-61445376D01*
X93616716Y-61377456D01*
X93469146Y-61278853D01*
X93343647Y-61153354D01*
X93245044Y-61005784D01*
X93177124Y-60841812D01*
X93142500Y-60667741D01*
X93142500Y-60490259D01*
X93177124Y-60316188D01*
X93245044Y-60152216D01*
X93343647Y-60004646D01*
X93469146Y-59879147D01*
X93616716Y-59780544D01*
X93780688Y-59712624D01*
X93929988Y-59682927D01*
X93954758Y-59678000D01*
X94132242Y-59678000D01*
X94157012Y-59682927D01*
G37*
G36*
X92404500Y-61480000D02*
G01*
X90602500Y-61480000D01*
X90602500Y-59678000D01*
X92404500Y-59678000D01*
X92404500Y-61480000D01*
G37*
G36*
X86578674Y-59895965D02*
G01*
X86616367Y-59907399D01*
X86651103Y-59925966D01*
X86681548Y-59950952D01*
X86706534Y-59981397D01*
X86725101Y-60016133D01*
X86736535Y-60053826D01*
X86741000Y-60099161D01*
X86741000Y-61185839D01*
X86736535Y-61231174D01*
X86725101Y-61268867D01*
X86706534Y-61303603D01*
X86681548Y-61334048D01*
X86651103Y-61359034D01*
X86616367Y-61377601D01*
X86578674Y-61389035D01*
X86533339Y-61393500D01*
X85696661Y-61393500D01*
X85651326Y-61389035D01*
X85613633Y-61377601D01*
X85578897Y-61359034D01*
X85548452Y-61334048D01*
X85523466Y-61303603D01*
X85504899Y-61268867D01*
X85493465Y-61231174D01*
X85489000Y-61185839D01*
X85489000Y-60099161D01*
X85493465Y-60053826D01*
X85504899Y-60016133D01*
X85523466Y-59981397D01*
X85548452Y-59950952D01*
X85578897Y-59925966D01*
X85613633Y-59907399D01*
X85651326Y-59895965D01*
X85696661Y-59891500D01*
X86533339Y-59891500D01*
X86578674Y-59895965D01*
G37*
G36*
X84528674Y-59895965D02*
G01*
X84566367Y-59907399D01*
X84601103Y-59925966D01*
X84631548Y-59950952D01*
X84656534Y-59981397D01*
X84675101Y-60016133D01*
X84686535Y-60053826D01*
X84691000Y-60099161D01*
X84691000Y-61185839D01*
X84686535Y-61231174D01*
X84675101Y-61268867D01*
X84656534Y-61303603D01*
X84631548Y-61334048D01*
X84601103Y-61359034D01*
X84566367Y-61377601D01*
X84528674Y-61389035D01*
X84483339Y-61393500D01*
X83646661Y-61393500D01*
X83601326Y-61389035D01*
X83563633Y-61377601D01*
X83528897Y-61359034D01*
X83498452Y-61334048D01*
X83473466Y-61303603D01*
X83454899Y-61268867D01*
X83443465Y-61231174D01*
X83439000Y-61185839D01*
X83439000Y-60099161D01*
X83443465Y-60053826D01*
X83454899Y-60016133D01*
X83473466Y-59981397D01*
X83498452Y-59950952D01*
X83528897Y-59925966D01*
X83563633Y-59907399D01*
X83601326Y-59895965D01*
X83646661Y-59891500D01*
X84483339Y-59891500D01*
X84528674Y-59895965D01*
G37*
M02*
