M48
; DRILL file {KiCad (5.1.5)-3} date 6/23/2020 7:18:00 PM
; FORMAT={-:-/ absolute / inch / decimal}
; #@! TF.CreationDate,2020-06-23T19:18:00-04:00
; #@! TF.GenerationSoftware,Kicad,Pcbnew,(5.1.5)-3
; #@! TF.FileFunction,Plated,1,2,PTH
FMAT,2
INCH
T1C0.0138
T2C0.0315
T3C0.0394
%
G90
G05
T1
X3.1125Y-2.6025
X3.1375Y-2.7275
X3.1375Y-2.8275
X3.1375Y-2.9275
X3.1575Y-2.64
X3.2475Y-2.66
X3.2825Y-2.7525
X3.3025Y-2.6275
X3.3025Y-2.8025
X3.3025Y-2.8775
X3.3275Y-2.7775
X3.3625Y-2.7275
X3.3675Y-2.6825
X3.3675Y-2.835
X3.38Y-2.66
X3.39Y-2.8775
X3.395Y-3.01
X3.405Y-2.445
X3.5375Y-2.7525
X3.555Y-2.615
X3.6113Y-2.6713
X3.6375Y-3.0025
X3.7075Y-3.1025
X3.7525Y-2.4925
X3.7525Y-2.84
T2
X3.2Y-2.4
X3.2Y-2.5
X3.2Y-2.6
X3.2Y-2.7
X3.2Y-2.8
X3.2Y-2.9
X3.2Y-3.0
X3.2Y-3.1
X3.5Y-2.4
X3.5Y-2.5
X3.5Y-2.6
X3.5Y-2.7
X3.5Y-2.8
X3.5Y-2.9
X3.5Y-3.0
X3.5Y-3.1
T3
X3.6025Y-2.385
X3.7025Y-2.385
X3.8025Y-2.385
T0
M30
