G04 #@! TF.GenerationSoftware,KiCad,Pcbnew,(5.1.5)-3*
G04 #@! TF.CreationDate,2020-06-23T19:18:02-04:00*
G04 #@! TF.ProjectId,8701Duo,38373031-4475-46f2-9e6b-696361645f70,rev?*
G04 #@! TF.SameCoordinates,Original*
G04 #@! TF.FileFunction,Legend,Bot*
G04 #@! TF.FilePolarity,Positive*
%FSLAX46Y46*%
G04 Gerber Fmt 4.6, Leading zero omitted, Abs format (unit mm)*
G04 Created by KiCad (PCBNEW (5.1.5)-3) date 2020-06-23 19:18:02*
%MOMM*%
%LPD*%
G04 APERTURE LIST*
%ADD10C,0.300000*%
%ADD11C,0.120000*%
%ADD12C,0.500000*%
%ADD13C,0.150000*%
G04 APERTURE END LIST*
D10*
X103679738Y-78199214D02*
X103584500Y-78103976D01*
X103489261Y-77913500D01*
X103489261Y-77437309D01*
X103584500Y-77246833D01*
X103679738Y-77151595D01*
X103870214Y-77056357D01*
X104060690Y-77056357D01*
X104346404Y-77151595D01*
X105489261Y-78294452D01*
X105489261Y-77056357D01*
X103489261Y-75818261D02*
X103489261Y-75627785D01*
X103584500Y-75437309D01*
X103679738Y-75342071D01*
X103870214Y-75246833D01*
X104251166Y-75151595D01*
X104727357Y-75151595D01*
X105108309Y-75246833D01*
X105298785Y-75342071D01*
X105394023Y-75437309D01*
X105489261Y-75627785D01*
X105489261Y-75818261D01*
X105394023Y-76008738D01*
X105298785Y-76103976D01*
X105108309Y-76199214D01*
X104727357Y-76294452D01*
X104251166Y-76294452D01*
X103870214Y-76199214D01*
X103679738Y-76103976D01*
X103584500Y-76008738D01*
X103489261Y-75818261D01*
X105298785Y-74294452D02*
X105394023Y-74199214D01*
X105489261Y-74294452D01*
X105394023Y-74389690D01*
X105298785Y-74294452D01*
X105489261Y-74294452D01*
X105489261Y-73246833D02*
X105489261Y-72865880D01*
X105394023Y-72675404D01*
X105298785Y-72580166D01*
X105013071Y-72389690D01*
X104632119Y-72294452D01*
X103870214Y-72294452D01*
X103679738Y-72389690D01*
X103584500Y-72484928D01*
X103489261Y-72675404D01*
X103489261Y-73056357D01*
X103584500Y-73246833D01*
X103679738Y-73342071D01*
X103870214Y-73437309D01*
X104346404Y-73437309D01*
X104536880Y-73342071D01*
X104632119Y-73246833D01*
X104727357Y-73056357D01*
X104727357Y-72675404D01*
X104632119Y-72484928D01*
X104536880Y-72389690D01*
X104346404Y-72294452D01*
X103489261Y-70484928D02*
X103489261Y-71437309D01*
X104441642Y-71532547D01*
X104346404Y-71437309D01*
X104251166Y-71246833D01*
X104251166Y-70770642D01*
X104346404Y-70580166D01*
X104441642Y-70484928D01*
X104632119Y-70389690D01*
X105108309Y-70389690D01*
X105298785Y-70484928D01*
X105394023Y-70580166D01*
X105489261Y-70770642D01*
X105489261Y-71246833D01*
X105394023Y-71437309D01*
X105298785Y-71532547D01*
X103489261Y-68580166D02*
X103489261Y-69532547D01*
X104441642Y-69627785D01*
X104346404Y-69532547D01*
X104251166Y-69342071D01*
X104251166Y-68865880D01*
X104346404Y-68675404D01*
X104441642Y-68580166D01*
X104632119Y-68484928D01*
X105108309Y-68484928D01*
X105298785Y-68580166D01*
X105394023Y-68675404D01*
X105489261Y-68865880D01*
X105489261Y-69342071D01*
X105394023Y-69532547D01*
X105298785Y-69627785D01*
X105489261Y-66103976D02*
X104155928Y-66103976D01*
X104346404Y-66103976D02*
X104251166Y-66008738D01*
X104155928Y-65818261D01*
X104155928Y-65532547D01*
X104251166Y-65342071D01*
X104441642Y-65246833D01*
X105489261Y-65246833D01*
X104441642Y-65246833D02*
X104251166Y-65151595D01*
X104155928Y-64961119D01*
X104155928Y-64675404D01*
X104251166Y-64484928D01*
X104441642Y-64389690D01*
X105489261Y-64389690D01*
X105489261Y-63437309D02*
X104155928Y-63437309D01*
X104346404Y-63437309D02*
X104251166Y-63342071D01*
X104155928Y-63151595D01*
X104155928Y-62865880D01*
X104251166Y-62675404D01*
X104441642Y-62580166D01*
X105489261Y-62580166D01*
X104441642Y-62580166D02*
X104251166Y-62484928D01*
X104155928Y-62294452D01*
X104155928Y-62008738D01*
X104251166Y-61818261D01*
X104441642Y-61723023D01*
X105489261Y-61723023D01*
D11*
X103314500Y-80391000D02*
X103314500Y-59436000D01*
X97790000Y-80391000D02*
X103900921Y-80391000D01*
X97790000Y-59436000D02*
X103900921Y-59436000D01*
X103314500Y-59436000D02*
X103900921Y-60562504D01*
X103314500Y-59436000D02*
X102728079Y-60562504D01*
X103314500Y-80391000D02*
X103900921Y-79264496D01*
X103314500Y-80391000D02*
X102728079Y-79264496D01*
D10*
X80899892Y-87525761D02*
X79757035Y-87525761D01*
X80328464Y-87525761D02*
X80328464Y-85525761D01*
X80137988Y-85811476D01*
X79947511Y-86001952D01*
X79757035Y-86097190D01*
X81852273Y-87525761D02*
X82233226Y-87525761D01*
X82423702Y-87430523D01*
X82518940Y-87335285D01*
X82709416Y-87049571D01*
X82804654Y-86668619D01*
X82804654Y-85906714D01*
X82709416Y-85716238D01*
X82614178Y-85621000D01*
X82423702Y-85525761D01*
X82042750Y-85525761D01*
X81852273Y-85621000D01*
X81757035Y-85716238D01*
X81661797Y-85906714D01*
X81661797Y-86382904D01*
X81757035Y-86573380D01*
X81852273Y-86668619D01*
X82042750Y-86763857D01*
X82423702Y-86763857D01*
X82614178Y-86668619D01*
X82709416Y-86573380D01*
X82804654Y-86382904D01*
X83661797Y-87335285D02*
X83757035Y-87430523D01*
X83661797Y-87525761D01*
X83566559Y-87430523D01*
X83661797Y-87335285D01*
X83661797Y-87525761D01*
X85471321Y-86192428D02*
X85471321Y-87525761D01*
X84995130Y-85430523D02*
X84518940Y-86859095D01*
X85757035Y-86859095D01*
X86614178Y-87525761D02*
X86995130Y-87525761D01*
X87185607Y-87430523D01*
X87280845Y-87335285D01*
X87471321Y-87049571D01*
X87566559Y-86668619D01*
X87566559Y-85906714D01*
X87471321Y-85716238D01*
X87376083Y-85621000D01*
X87185607Y-85525761D01*
X86804654Y-85525761D01*
X86614178Y-85621000D01*
X86518940Y-85716238D01*
X86423702Y-85906714D01*
X86423702Y-86382904D01*
X86518940Y-86573380D01*
X86614178Y-86668619D01*
X86804654Y-86763857D01*
X87185607Y-86763857D01*
X87376083Y-86668619D01*
X87471321Y-86573380D01*
X87566559Y-86382904D01*
X89280845Y-86192428D02*
X89280845Y-87525761D01*
X88804654Y-85430523D02*
X88328464Y-86859095D01*
X89566559Y-86859095D01*
X91852273Y-87525761D02*
X91852273Y-86192428D01*
X91852273Y-86382904D02*
X91947511Y-86287666D01*
X92137988Y-86192428D01*
X92423702Y-86192428D01*
X92614178Y-86287666D01*
X92709416Y-86478142D01*
X92709416Y-87525761D01*
X92709416Y-86478142D02*
X92804654Y-86287666D01*
X92995130Y-86192428D01*
X93280845Y-86192428D01*
X93471321Y-86287666D01*
X93566559Y-86478142D01*
X93566559Y-87525761D01*
X94518940Y-87525761D02*
X94518940Y-86192428D01*
X94518940Y-86382904D02*
X94614178Y-86287666D01*
X94804654Y-86192428D01*
X95090369Y-86192428D01*
X95280845Y-86287666D01*
X95376083Y-86478142D01*
X95376083Y-87525761D01*
X95376083Y-86478142D02*
X95471321Y-86287666D01*
X95661797Y-86192428D01*
X95947511Y-86192428D01*
X96137988Y-86287666D01*
X96233226Y-86478142D01*
X96233226Y-87525761D01*
D11*
X78295500Y-84201000D02*
X97790000Y-84201000D01*
X78295500Y-80391000D02*
X78295500Y-84787421D01*
X97790000Y-80391000D02*
X97790000Y-84787421D01*
X97790000Y-84201000D02*
X96663496Y-84787421D01*
X97790000Y-84201000D02*
X96663496Y-83614579D01*
X78295500Y-84201000D02*
X79422004Y-84787421D01*
X78295500Y-84201000D02*
X79422004Y-83614579D01*
D10*
X97011738Y-63896761D02*
X97011738Y-61896761D01*
X96249833Y-61896761D01*
X96059357Y-61992000D01*
X95964119Y-62087238D01*
X95868880Y-62277714D01*
X95868880Y-62563428D01*
X95964119Y-62753904D01*
X96059357Y-62849142D01*
X96249833Y-62944380D01*
X97011738Y-62944380D01*
X91964119Y-63896761D02*
X91964119Y-61896761D01*
X90821261Y-63896761D01*
X90821261Y-61896761D01*
D12*
X91620880Y-71818976D02*
X91501833Y-71580880D01*
X91382785Y-71461833D01*
X91144690Y-71342785D01*
X91025642Y-71342785D01*
X90787547Y-71461833D01*
X90668500Y-71580880D01*
X90549452Y-71818976D01*
X90549452Y-72295166D01*
X90668500Y-72533261D01*
X90787547Y-72652309D01*
X91025642Y-72771357D01*
X91144690Y-72771357D01*
X91382785Y-72652309D01*
X91501833Y-72533261D01*
X91620880Y-72295166D01*
X91620880Y-71818976D01*
X91739928Y-71580880D01*
X91858976Y-71461833D01*
X92097071Y-71342785D01*
X92573261Y-71342785D01*
X92811357Y-71461833D01*
X92930404Y-71580880D01*
X93049452Y-71818976D01*
X93049452Y-72295166D01*
X92930404Y-72533261D01*
X92811357Y-72652309D01*
X92573261Y-72771357D01*
X92097071Y-72771357D01*
X91858976Y-72652309D01*
X91739928Y-72533261D01*
X91620880Y-72295166D01*
X90549452Y-73604690D02*
X90549452Y-75271357D01*
X93049452Y-74199928D01*
X90549452Y-76699928D02*
X90549452Y-76938023D01*
X90668500Y-77176119D01*
X90787547Y-77295166D01*
X91025642Y-77414214D01*
X91501833Y-77533261D01*
X92097071Y-77533261D01*
X92573261Y-77414214D01*
X92811357Y-77295166D01*
X92930404Y-77176119D01*
X93049452Y-76938023D01*
X93049452Y-76699928D01*
X92930404Y-76461833D01*
X92811357Y-76342785D01*
X92573261Y-76223738D01*
X92097071Y-76104690D01*
X91501833Y-76104690D01*
X91025642Y-76223738D01*
X90787547Y-76342785D01*
X90668500Y-76461833D01*
X90549452Y-76699928D01*
X93049452Y-79914214D02*
X93049452Y-78485642D01*
X93049452Y-79199928D02*
X90549452Y-79199928D01*
X90906595Y-78961833D01*
X91144690Y-78723738D01*
X91263738Y-78485642D01*
X97299452Y-72354690D02*
X94799452Y-72354690D01*
X94799452Y-72949928D01*
X94918500Y-73307071D01*
X95156595Y-73545166D01*
X95394690Y-73664214D01*
X95870880Y-73783261D01*
X96228023Y-73783261D01*
X96704214Y-73664214D01*
X96942309Y-73545166D01*
X97180404Y-73307071D01*
X97299452Y-72949928D01*
X97299452Y-72354690D01*
X94799452Y-74854690D02*
X96823261Y-74854690D01*
X97061357Y-74973738D01*
X97180404Y-75092785D01*
X97299452Y-75330880D01*
X97299452Y-75807071D01*
X97180404Y-76045166D01*
X97061357Y-76164214D01*
X96823261Y-76283261D01*
X94799452Y-76283261D01*
X94799452Y-77949928D02*
X94799452Y-78426119D01*
X94918500Y-78664214D01*
X95156595Y-78902309D01*
X95632785Y-79021357D01*
X96466119Y-79021357D01*
X96942309Y-78902309D01*
X97180404Y-78664214D01*
X97299452Y-78426119D01*
X97299452Y-77949928D01*
X97180404Y-77711833D01*
X96942309Y-77473738D01*
X96466119Y-77354690D01*
X95632785Y-77354690D01*
X95156595Y-77473738D01*
X94918500Y-77711833D01*
X94799452Y-77949928D01*
D11*
X85033752Y-65584000D02*
X84511248Y-65584000D01*
X85033752Y-67004000D02*
X84511248Y-67004000D01*
X84828748Y-61352500D02*
X85351252Y-61352500D01*
X84828748Y-59932500D02*
X85351252Y-59932500D01*
X84892248Y-77776000D02*
X85414752Y-77776000D01*
X84892248Y-79196000D02*
X85414752Y-79196000D01*
D13*
X84939166Y-66651142D02*
X84986785Y-66698761D01*
X85129642Y-66746380D01*
X85224880Y-66746380D01*
X85367738Y-66698761D01*
X85462976Y-66603523D01*
X85510595Y-66508285D01*
X85558214Y-66317809D01*
X85558214Y-66174952D01*
X85510595Y-65984476D01*
X85462976Y-65889238D01*
X85367738Y-65794000D01*
X85224880Y-65746380D01*
X85129642Y-65746380D01*
X84986785Y-65794000D01*
X84939166Y-65841619D01*
X83986785Y-66746380D02*
X84558214Y-66746380D01*
X84272500Y-66746380D02*
X84272500Y-65746380D01*
X84367738Y-65889238D01*
X84462976Y-65984476D01*
X84558214Y-66032095D01*
X85256666Y-61094880D02*
X85590000Y-60618690D01*
X85828095Y-61094880D02*
X85828095Y-60094880D01*
X85447142Y-60094880D01*
X85351904Y-60142500D01*
X85304285Y-60190119D01*
X85256666Y-60285357D01*
X85256666Y-60428214D01*
X85304285Y-60523452D01*
X85351904Y-60571071D01*
X85447142Y-60618690D01*
X85828095Y-60618690D01*
X84304285Y-61094880D02*
X84875714Y-61094880D01*
X84590000Y-61094880D02*
X84590000Y-60094880D01*
X84685238Y-60237738D01*
X84780476Y-60332976D01*
X84875714Y-60380595D01*
X85320166Y-78906642D02*
X85367785Y-78954261D01*
X85510642Y-79001880D01*
X85605880Y-79001880D01*
X85748738Y-78954261D01*
X85843976Y-78859023D01*
X85891595Y-78763785D01*
X85939214Y-78573309D01*
X85939214Y-78430452D01*
X85891595Y-78239976D01*
X85843976Y-78144738D01*
X85748738Y-78049500D01*
X85605880Y-78001880D01*
X85510642Y-78001880D01*
X85367785Y-78049500D01*
X85320166Y-78097119D01*
X84463023Y-78335214D02*
X84463023Y-79001880D01*
X84701119Y-77954261D02*
X84939214Y-78668547D01*
X84320166Y-78668547D01*
M02*
